<?xml version="1.0" encoding="UTF-8"?>
<svg version="1.1" xmlns="http://www.w3.org/2000/svg" width="631" height="631">
<path d="M0 0 C5.94 0 11.88 0 18 0 C17.01 0.66 16.02 1.32 15 2 C13.65838474 2.94670431 12.32555628 3.90593802 11 4.875 C10.319375 5.36742187 9.63875 5.85984375 8.9375 6.3671875 C6.90315428 7.95392785 6.90315428 7.95392785 5.375 10.1953125 C4.694375 11.08863281 4.694375 11.08863281 4 12 C3.34 12 2.68 12 2 12 C1.67 13.98 1.34 15.96 1 18 C0.67 18 0.34 18 0 18 C0 12.06 0 6.12 0 0 Z " fill="#000000" transform="translate(0,0)"/>
<path d="M0 0 C5.94 0 11.88 0 18 0 C18 5.94 18 11.88 18 18 C16.72723717 16.09085576 15.4930135 14.15502251 14.3125 12.1875 C10.56460466 7.0214821 6.22280064 2.88569716 0 1 C0 0.67 0 0.34 0 0 Z " fill="#000000" transform="translate(613,0)"/>
<path d="M0 0 C0.33 0.99 0.66 1.98 1 3 C-2.96 5.97 -6.92 8.94 -11 12 C-8.08318736 11.35482025 -5.16654627 10.7088818 -2.25 10.0625 C-1.425 9.88009766 -0.6 9.69769531 0.25 9.50976562 C1.04921875 9.33251953 1.8484375 9.15527344 2.671875 8.97265625 C3.4050293 8.81031494 4.13818359 8.64797363 4.89355469 8.48071289 C6.93661753 8.01446454 8.96893762 7.51579351 11 7 C10 10 10 10 8 11 C10.31 11 12.62 11 15 11 C13.35 12.98 11.7 14.96 10 17 C10.4846875 17.66644531 10.969375 18.33289063 11.46875 19.01953125 C12.1390625 19.94121094 12.809375 20.86289063 13.5 21.8125 C14.22703125 22.81152344 14.9540625 23.81054688 15.703125 24.83984375 C17.19520329 26.89272017 18.68492353 28.9473133 20.171875 31.00390625 C21.20054687 32.42509766 21.20054687 32.42509766 22.25 33.875 C22.87390625 34.73867187 23.4978125 35.60234375 24.140625 36.4921875 C25.97250182 39.06450577 25.97250182 39.06450577 28.26953125 41.4140625 C30.56754021 44.84810749 30.16965391 46.48466534 29.4375 50.5 C29.11458984 52.32917969 29.11458984 52.32917969 28.78515625 54.1953125 C27.62380077 59.82297538 26.38935726 65.4240462 25 71 C25.556875 70.54109375 26.11375 70.0821875 26.6875 69.609375 C36.35541894 61.83584558 46.20961215 56.83723747 59 58 C65.99396602 59.55152106 70.23043068 61.92235421 74.33984375 67.97265625 C81.67377924 80.0258198 81.28356641 94.04746836 78.08984375 107.42578125 C73.34189551 122.99700933 63.72897413 134.68791579 51.01171875 144.484375 C47.25453413 147.62267188 43.95123029 151.09905679 40.5625 154.625 C34.64734621 160.72106839 28.87605305 165.55171102 21 169 C20.34 169 19.68 169 19 169 C19.16371094 170.134375 19.32742188 171.26875 19.49609375 172.4375 C19.87532414 175.43968559 20.05200811 178.34975437 20.03515625 181.375 C20.04190485 191.8420773 21.71951891 199.23129671 26.9921875 208.2890625 C29.3129796 212.33885835 30.63281828 216.55527562 32 221 C32.53481071 222.58996002 33.06997404 224.17980147 33.60546875 225.76953125 C38.50810553 241.06310139 40.00618243 255.31998831 36 271 C35.34 271 34.68 271 34 271 C33.855625 271.763125 33.71125 272.52625 33.5625 273.3125 C33 276 33 276 32 279 C32.66 279 33.32 279 34 279 C36 282 36 282 35.8125 284.0625 C35 286 35 286 32 288 C32 289.99228324 32.00467082 291.98500913 32.05859375 293.9765625 C31.96528955 297.19866771 31.14507058 298.59492086 29 301 C9.82127831 315.37331491 -21.6262948 311.10977164 -44.16972351 310.20030212 C-51.01181723 309.93599193 -57.82879039 309.98976072 -64.671875 310.16015625 C-68.12534148 309.99396831 -70.79276127 309.25436484 -74 308 C-74 308.66 -74 309.32 -74 310 C-74.66 310 -75.32 310 -76 310 C-75.67 313.96 -75.34 317.92 -75 322 C-73.35 322.33 -71.7 322.66 -70 323 C-67.59433523 324.04989493 -65.27456523 325.13033657 -62.9375 326.3125 C-62.32583984 326.60833984 -61.71417969 326.90417969 -61.08398438 327.20898438 C-57.4214901 329.04221124 -54.77770785 331.01396407 -52 334 C-51.195625 334.4125 -50.39125 334.825 -49.5625 335.25 C-45.37040568 338.11289368 -43.23832069 342.52335862 -41 347 C-40.12888384 356.25872035 -40.9261756 363.13557217 -46 371 C-40.08968053 372.88627217 -34.23379069 374.45320684 -28.12890625 375.5703125 C-26 376 -26 376 -23 377 C-21.989375 377.165 -20.97875 377.33 -19.9375 377.5 C-17 378 -17 378 -15 379 C-15 379.66 -15 380.32 -15 381 C-14.2575 380.9175 -13.515 380.835 -12.75 380.75 C-9.16342117 381.07605262 -8.41807898 382.43079109 -6 385 C-5.175 385.309375 -4.35 385.61875 -3.5 385.9375 C-0.2596429 387.31465177 1.03473983 389.1222976 3 392 C3.33 392.99 3.66 393.98 4 395 C5.33052337 396.33613739 6.66424022 397.66909753 8 399 C19.18882886 414.63370608 21.19254637 436.22319008 24.90234375 454.62890625 C25.54081588 457.79372283 26.20286929 460.946879 26.94140625 464.08984375 C28.93665212 472.65879825 29.39438009 479.91570134 30 489 C-86.49 489 -202.98 489 -323 489 C-314.51202271 466.36539391 -305.83990869 444.54590002 -294.25195312 423.3371582 C-293.05289774 421.09875 -291.92436861 418.83739532 -290.8125 416.5546875 C-288.9269802 412.85679307 -286.68153712 410.15080612 -284 407 C-283.26551609 405.78627837 -282.55687821 404.55653734 -281.875 403.3125 C-278.63636364 397.59090909 -278.63636364 397.59090909 -274.75 396.1875 C-272.09121847 395.0393898 -270.73285189 393.98130688 -268.625 392.0625 C-265.34673448 389.12631436 -262.11929097 387.60194649 -258 386 C-257.175 385.505 -256.35 385.01 -255.5 384.5 C-253.05856198 383.03513719 -250.5829334 381.90910192 -247.95703125 380.81640625 C-243.08360822 378.78338147 -238.26842342 376.64574283 -233.5625 374.25 C-231 373 -231 373 -229 373 C-228.7525 372.113125 -228.505 371.22625 -228.25 370.3125 C-224.7809971 361.11964231 -216.44594544 355.33758367 -208 351 C-208.15726562 349.865625 -208.31453125 348.73125 -208.4765625 347.5625 C-211.00791914 327.09544559 -211.00791914 327.09544559 -206.8125 320.125 C-204.55089144 317.30276735 -201.92797472 315.12278167 -199 313 C-197.824375 311.7934375 -197.824375 311.7934375 -196.625 310.5625 C-191.88636622 305.93669084 -187.44434035 302.79842056 -181 301 C-180.34 300.67 -179.68 300.34 -179 300 C-177.46331135 299.77532169 -175.92031946 299.59203195 -174.375 299.4375 C-173.14910156 299.31181641 -173.14910156 299.31181641 -171.8984375 299.18359375 C-171.27195313 299.12300781 -170.64546875 299.06242187 -170 299 C-166.83663574 267.79686197 -166.83663574 267.79686197 -171 237 C-173.1491917 240.22378756 -174.024994 242.98414648 -175.125 246.6875 C-175.65480469 248.45673828 -175.65480469 248.45673828 -176.1953125 250.26171875 C-176.46085938 251.16535156 -176.72640625 252.06898438 -177 253 C-177.66 253 -178.32 253 -179 253 C-177.94491383 232.00742352 -174.33094418 211.25411441 -170.8125 190.5625 C-170.44036767 188.354883 -170.06862129 186.1472009 -169.69726562 183.93945312 C-168.80259791 178.62554797 -167.90327331 173.31244877 -167 168 C-167.886875 168.474375 -168.77375 168.94875 -169.6875 169.4375 C-175.42271946 172.1427922 -180.48032896 172.11663023 -186.6953125 172.02734375 C-188.39713344 172.0147056 -190.09895646 172.00234405 -191.80078125 171.99023438 C-194.47158324 171.96535419 -197.14227666 171.93728502 -199.81298828 171.90405273 C-202.39877019 171.87390822 -204.98441133 171.85610144 -207.5703125 171.83984375 C-208.37034698 171.82638412 -209.17038147 171.8129245 -209.99465942 171.79905701 C-213.87110157 171.7814628 -215.69643132 171.79762088 -219 174 C-222.08771734 174.60135319 -224.91443216 174.62471884 -228 174 C-230.7671789 171.41328929 -232.45358625 168.91896857 -234.375 165.6875 C-235.8223381 163.29382544 -237.33720313 161.38633525 -239.125 159.25 C-250.37900487 144.82484545 -259.85823107 123.65378109 -258 105 C-255.62968369 96.61453747 -251.72411995 88.67071909 -248.04638672 80.79223633 C-247.12355692 78.80939932 -246.21590733 76.82005404 -245.30859375 74.83007812 C-240.03800471 63.41058734 -233.3077087 51.41833745 -221.25 46 C-211.61997331 43.03987203 -201.74325347 44.66000204 -192.91796875 49.03125 C-187.50322245 52.09581005 -183.82817648 56.15898759 -180 61 C-179.34257812 61.83015625 -178.68515625 62.6603125 -178.0078125 63.515625 C-176.32380595 65.66628397 -174.65494525 67.82694118 -173 70 C-169.21608328 68.39497371 -166.41602906 65.87789623 -163.375 63.1875 C-150.88543009 52.41041379 -137.3493312 43.11066076 -123 35 C-122.12625732 34.49243164 -122.12625732 34.49243164 -121.23486328 33.97460938 C-100.68129004 22.0604849 -77.67001927 14.16824733 -53.83569336 13.76171875 C-33.36456471 13.36561264 -18.37732415 8.77169758 0 0 Z M-9 6 C-11.37756427 7.00379308 -13.67825748 8.06690697 -16 9.1875 C-22.14949882 12.02562107 -28.19588008 14.04975428 -34.8125 15.5 C-35.58271484 15.67168701 -36.35292969 15.84337402 -37.14648438 16.02026367 C-40.56066254 16.72087195 -42.63954735 17.12015088 -46 16 C-72.29609332 14.22363046 -96.12503493 22.74126215 -119 35 C-119.65564941 35.34256836 -120.31129883 35.68513672 -120.98681641 36.03808594 C-131.08502011 41.32492301 -140.13053052 47.50286928 -149.10253906 54.52001953 C-151.51390765 56.40083739 -153.94984154 58.24812519 -156.38745117 60.09472656 C-158.0048182 61.33091264 -159.60245959 62.59277627 -161.19921875 63.85546875 C-164 66 -164 66 -166.39453125 67.42578125 C-168.61714075 68.84176324 -169.65742111 69.72543809 -171 72 C-171.1928307 75.13410105 -171.1928307 75.13410105 -170.8203125 78.6796875 C-170.73904114 79.66745934 -170.73904114 79.66745934 -170.65612793 80.67518616 C-169.9737294 88.3157412 -168.75218368 95.87363371 -167.5 103.4375 C-167.2714676 104.84299053 -167.04360116 106.24858952 -166.81640625 107.65429688 C-166.70622162 108.33601959 -166.59603699 109.01774231 -166.48251343 109.72012329 C-165.98446709 112.81279957 -165.49197671 115.90635322 -165 119 C-164.87931152 119.72203613 -164.75862305 120.44407227 -164.63427734 121.18798828 C-161.2550022 143.76797119 -164.15290271 167.48370722 -168.22509766 189.70166016 C-169.55103961 196.97812951 -170.72048723 204.28152716 -171.90643311 211.58184814 C-172.30360212 214.00814308 -172.71060258 216.43261287 -173.11962891 218.85693359 C-173.36771738 220.35380729 -173.61561112 221.85071328 -173.86328125 223.34765625 C-173.97866745 224.01919235 -174.09405365 224.69072845 -174.2129364 225.38261414 C-174.90572644 229.62774079 -175.10103666 233.70264344 -175 238 C-172.98566821 234.97850231 -172.34096557 232.944402 -171.4921875 229.45703125 C-171.09580078 227.84731445 -171.09580078 227.84731445 -170.69140625 226.20507812 C-170.42199219 225.08552734 -170.15257812 223.96597656 -169.875 222.8125 C-169.59785156 221.68134766 -169.32070312 220.55019531 -169.03515625 219.38476562 C-168.35147196 216.59109015 -167.67331506 213.79618941 -167 211 C-167.3425376 212.40856759 -167.67685924 213.81913442 -168.0078125 215.23046875 C-168.1948877 216.01574951 -168.38196289 216.80103027 -168.57470703 217.61010742 C-170.6611586 229.33471958 -163.90793585 241.54957235 -159.015625 251.75390625 C-156.61189445 256.7762463 -154.33955142 261.8567812 -152.0625 266.9375 C-151.66071533 267.83275391 -151.25893066 268.72800781 -150.8449707 269.65039062 C-149.89572844 271.76651739 -148.94737703 273.88303768 -148 276 C-146.8215368 272.39506176 -147.04883113 269.2690736 -147.33984375 265.51171875 C-147.43330078 264.24779297 -147.52675781 262.98386719 -147.62304688 261.68164062 C-147.72747446 260.35022976 -147.83229533 259.01884969 -147.9375 257.6875 C-148.13632306 255.08740752 -148.33300545 252.48715028 -148.52734375 249.88671875 C-148.61749756 248.73389404 -148.70765137 247.58106934 -148.80053711 246.39331055 C-149.00465964 242.92072904 -149.03346901 239.47773484 -149 236 C-148.78907715 236.56807373 -148.5781543 237.13614746 -148.36083984 237.72143555 C-144.27988508 248.67447013 -140.14576933 259.49405428 -135 270 C-134.67 270 -134.34 270 -134 270 C-134.00523682 269.40050537 -134.01047363 268.80101074 -134.01586914 268.18334961 C-134.03681443 265.43474398 -134.04971556 262.68615522 -134.0625 259.9375 C-134.07087891 258.99455078 -134.07925781 258.05160156 -134.08789062 257.08007812 C-134.10584517 251.92712502 -133.83917976 247.08133258 -133 242 C-133 241.01 -133 240.02 -133 239 C-132.30366081 237.12502113 -131.54451919 235.27303079 -130.75 233.4375 C-129.10152463 229.61101109 -127.55152933 225.78865219 -126.125 221.875 C-124.71190458 218.32588265 -123.01556378 215.43528677 -120.76171875 212.35546875 C-117.09488076 207.21239598 -113.85859357 201.89638098 -110.6875 196.4375 C-110.130625 195.48657471 -109.57375 194.53564941 -109 193.5559082 C-107.8700018 191.62608719 -106.74156046 189.69535365 -105.61474609 187.76367188 C-103.67972185 184.45183722 -101.72850556 181.14976345 -99.77612305 177.84814453 C-92.69183206 167.89222821 -92.69183206 167.89222821 -89 157 C-90.16015625 156.56300781 -90.16015625 156.56300781 -91.34375 156.1171875 C-99.02886344 153.09260078 -106.2960451 150.05593235 -111 143 C-111.33004031 137.88437526 -111.07391455 134.72391647 -109 130 C-109.90621094 129.85304688 -110.81242187 129.70609375 -111.74609375 129.5546875 C-120.45989186 127.95024213 -127.94934188 126.1536084 -133.62109375 118.9375 C-139.10080319 110.49284863 -139.30169289 100.60795692 -137.38671875 90.88671875 C-131.86107205 74.06635811 -115.39236907 58.25628422 -100 50 C-83.05757619 41.45554995 -60.73882131 45.81797936 -43.35546875 51.109375 C-35.26784319 53.25603231 -25.89743103 53.39116348 -18.38671875 49.4140625 C-17.59910156 48.94742188 -16.81148437 48.48078125 -16 48 C-14.84080297 47.33945962 -13.6805552 46.68076141 -12.51953125 46.0234375 C-10.65829613 44.96718476 -8.80201655 43.90568388 -6.95874023 42.81835938 C1.40101203 37.90406072 1.40101203 37.90406072 6.125 38.1875 C9.14536221 39.04108062 10.20367297 39.48514216 12 42 C16.6457821 52.35779139 15.12245369 65.04855665 15.0625 76.1875 C15.05747294 77.82356633 15.05291217 79.45963417 15.04882812 81.09570312 C15.03792277 85.06383986 15.0207253 89.03190291 15 93 C17.18075845 89.72886232 18.1045191 86.61828327 19.12890625 82.8828125 C19.32346909 82.18864227 19.51803192 81.49447205 19.7184906 80.77926636 C20.12856005 79.31236584 20.53605845 77.84474449 20.94116211 76.37646484 C21.55871721 74.13870721 22.18390494 71.90319685 22.81054688 69.66796875 C23.20878373 68.23970884 23.6065845 66.81132725 24.00390625 65.3828125 C24.18933487 64.71806915 24.37476349 64.05332581 24.56581116 63.36843872 C25.51259148 59.93035809 26.34245124 56.50468344 27 53 C27.15984375 52.35160156 27.3196875 51.70320313 27.484375 51.03515625 C28.07187032 46.67213952 27.28699084 44.43255094 24.828125 40.7265625 C22.45724481 37.67865249 19.95108944 34.74577255 17.45849609 31.79736328 C13.9405464 27.46205266 11.00346802 22.69883536 8 18 C6.35 18.33 4.7 18.66 3 19 C3.99 18.360625 4.98 17.72125 6 17.0625 C6.99 16.381875 7.98 15.70125 9 15 C9 14.67 9 14.34 9 14 C4.05 14.495 4.05 14.495 -1 15 C-0.01 14.34 0.98 13.68 2 13 C-1.93233901 11.68922033 -4.85893225 12.64074717 -8.75 13.625 C-9.82991211 13.89425293 -9.82991211 13.89425293 -10.93164062 14.16894531 C-16.16605479 15.56685301 -19.92922526 17.33630273 -24 21 C-20.46843481 17.31118515 -16.81465908 14.22617756 -12.6875 11.1875 C-12.13771484 10.78080078 -11.58792969 10.37410156 -11.02148438 9.95507812 C-9.68374453 8.96631389 -8.34226377 7.98261415 -7 7 C-7.99 6.505 -7.99 6.505 -9 6 Z M-3.75 42.625 C-4.78769531 43.16898438 -5.82539063 43.71296875 -6.89453125 44.2734375 C-10.57507705 46.31972837 -14.18233021 48.45994389 -17.74609375 50.703125 C-20.0984592 52.05665243 -22.46074595 53.05057873 -25 54 C-24.16783789 62.47944497 -22.41767608 68.38997213 -17 75 C-16.58572754 75.5266626 -16.17145508 76.0533252 -15.74462891 76.59594727 C-11.94872058 81.26521056 -7.73009912 84.78602262 -2.875 88.3125 C-1.82119141 89.09850586 -1.82119141 89.09850586 -0.74609375 89.90039062 C2.41745541 92.23567597 5.43748846 94.31112384 9 96 C7.16829143 106.08517188 7.16829143 106.08517188 4 109 C3.01 109 2.02 109 1 109 C0.4225 109.474375 -0.155 109.94875 -0.75 110.4375 C-3.74129412 112.51478758 -6.42272676 112.65603142 -10 113 C-8.515 113.99 -8.515 113.99 -7 115 C-17.07446062 113.64741038 -22.8614983 108.81263853 -29 101 C-29.33 101 -29.66 101 -30 101 C-30.71042847 105.0758848 -30.71042847 105.0758848 -30 109 C-23.60271287 115.24194461 -12.54640882 118.60721403 -3.80078125 119.2265625 C0.24547184 118.89925053 2.38316546 116.89266305 5 114 C17.80504656 98.33733006 15.08943397 69.83460246 13.4140625 50.6875 C12.72294866 46.20178001 11.17524617 43.17524617 8 40 C3.31096286 39.5099029 0.376626 40.45015657 -3.75 42.625 Z M-234 59 C-239.9253259 67.15771322 -243.84199988 76.67912251 -248.04135132 85.80432129 C-248.63255998 87.0879276 -249.2275558 88.36979726 -249.8265686 89.64978027 C-255.11602398 101.01208039 -257.21427429 109.66364324 -254.125 121.9375 C-253.79205933 123.28678589 -253.79205933 123.28678589 -253.45239258 124.66333008 C-249.8929959 138.12682754 -244.02816477 152.0439803 -234 162 C-233.34 162.33 -232.68 162.66 -232 163 C-231.814375 162.236875 -231.62875 161.47375 -231.4375 160.6875 C-229.03295544 156.19204713 -224.61427055 155.53809018 -220 154 C-220.845625 153.401875 -221.69125 152.80375 -222.5625 152.1875 C-231.87561095 144.34951537 -236.49222395 131.79194664 -238 120 C-238.84064387 105.6711428 -238.32710706 91.7379062 -231.76953125 78.671875 C-230.86062806 77.00394775 -230.86062806 77.00394775 -231 75 C-232.98 75.99 -232.98 75.99 -235 77 C-232.01297943 72.93473785 -228.62788368 69.89099761 -224.625 66.875 C-224.07328125 66.44574219 -223.5215625 66.01648438 -222.953125 65.57421875 C-216.15751455 60.38977415 -209.59083035 57.21886455 -200.890625 58.25 C-189.68943827 60.68126534 -183.54364859 68.11356364 -177 77 C-176.52754835 73.14164488 -176.09495183 69.53669637 -178.125 66.08984375 C-179.68000709 64.3121143 -181.32641818 62.66586947 -183 61 C-183.91996221 59.79417383 -184.83664946 58.58584186 -185.75 57.375 C-191.56388255 50.58450726 -201.13817908 47.39850991 -209.8125 46.6875 C-220.2092644 47.08814603 -227.21963089 51.18514672 -234 59 Z M-121 69 C-121.76699219 69.75410156 -122.53398437 70.50820312 -123.32421875 71.28515625 C-133.05721399 81.5001665 -136.5380796 92.29952752 -136.2734375 106.0703125 C-135.80039678 112.86858344 -133.63252665 116.69812126 -128.75 121.3125 C-121.15125752 127.19591453 -113.46581351 127.91566286 -104 127 C-101.85783811 126.39888314 -99.94505949 125.65086028 -97.921875 124.734375 C-94.4228012 123.39733054 -90.71235077 123.24920873 -87 123 C-88.32 122.67 -89.64 122.34 -91 122 C-91 121.34 -91 120.68 -91 120 C-89.1128125 120.0928125 -89.1128125 120.0928125 -87.1875 120.1875 C-80.44630243 120.19818336 -73.63786005 118.75857337 -68 115 C-68.73001221 115.01571045 -69.46002441 115.0314209 -70.2121582 115.04760742 C-73.57885726 115.11067814 -76.94543137 115.14921714 -80.3125 115.1875 C-81.46041016 115.21263672 -82.60832031 115.23777344 -83.79101562 115.26367188 C-94.6771363 115.35618848 -103.47165723 113.21362151 -113 108 C-110.88813677 113.18979155 -106.70190716 115.30413417 -102 118 C-98.21446208 119.57135536 -96.13125758 120 -92 120 C-92 120.66 -92 121.32 -92 122 C-102.92553418 119.66639076 -110.48837868 116.4317814 -117 107 C-117.7303491 105.0223664 -118.41170175 103.0244381 -119 101 C-117.13357979 99.77845588 -115.25615382 98.57373048 -113.375 97.375 C-112.33085937 96.70210937 -111.28671875 96.02921875 -110.2109375 95.3359375 C-99.05986081 88.80102797 -86.40827744 84.90830618 -74.22998047 80.74731445 C-57.33960099 75.69226805 -57.33960099 75.69226805 -44.9140625 64.14453125 C-43.906796 61.78132909 -43.60024645 59.80279305 -43.375 57.25 C-43.30023438 56.45078125 -43.22546875 55.6515625 -43.1484375 54.828125 C-43.07496094 53.92320312 -43.07496094 53.92320312 -43 53 C-74.48041808 44.03047562 -97.08283802 45.41734378 -121 69 Z M-41 54 C-41.09796875 54.65226562 -41.1959375 55.30453125 -41.296875 55.9765625 C-42.24664644 61.52781282 -43.30840435 65.57008523 -47 70 C-48.36125 70.8971875 -48.36125 70.8971875 -49.75 71.8125 C-52.27592795 74.26826329 -52.38106539 74.70854386 -52.5 78.0625 C-52.18573485 83.45888162 -51.15674397 89.02972582 -49 94 C-48.01 94.33 -47.02 94.66 -46 95 C-46.95545366 96.46022163 -47.91446678 97.91811468 -48.875 99.375 C-49.67550781 100.59316406 -49.67550781 100.59316406 -50.4921875 101.8359375 C-52 104 -52 104 -54 106 C-53.071875 105.7525 -53.071875 105.7525 -52.125 105.5 C-50 105 -50 105 -48 105 C-48.33 105.66 -48.66 106.32 -49 107 C-48.26394531 106.98839844 -47.52789062 106.97679687 -46.76953125 106.96484375 C-45.79371094 106.95582031 -44.81789063 106.94679687 -43.8125 106.9375 C-42.36810547 106.92009766 -42.36810547 106.92009766 -40.89453125 106.90234375 C-38.14423487 106.99513378 -35.67520409 107.37888315 -33 108 C-32.90203125 106.77925781 -32.8040625 105.55851562 -32.703125 104.30078125 C-31.91366038 95.33830432 -30.78776002 87.1976057 -27.88671875 78.65625 C-25.4162376 71.25568973 -25.04224736 62.5862915 -27 55 C-28.32 55.33 -29.64 55.66 -31 56 C-31 60.29 -31 64.58 -31 69 C-31.33 64.38 -31.66 59.76 -32 55 C-34.97 54.67 -37.94 54.34 -41 54 Z M-226 71 C-236.18871956 86.45068598 -239.63248778 105.22251134 -236.2734375 123.38671875 C-234.67153654 130.81511663 -232.42532389 137.74485011 -228 144 C-227.57074219 144.62132812 -227.14148438 145.24265625 -226.69921875 145.8828125 C-220.64696761 153.75926328 -210.73407561 158.94780069 -201 160.46875 C-187.31915992 161.88845982 -178.12167588 159.15731014 -167.23828125 150.90625 C-164.04145813 146.75540113 -164.36690225 143.40187663 -164.5625 138.3125 C-164.56830078 137.44560547 -164.57410156 136.57871094 -164.58007812 135.68554688 C-164.42975384 130.82750568 -164.42975384 130.82750568 -167 127 C-167.36351562 127.71285156 -167.72703125 128.42570312 -168.1015625 129.16015625 C-173.32533476 139.11211211 -177.77440008 145.06898848 -188 150 C-187.50371094 149.64808594 -187.00742188 149.29617188 -186.49609375 148.93359375 C-177.36059598 142.29432308 -169.47812965 135.13230311 -166 124 C-165.66095361 118.60795156 -166.6059939 113.33556646 -167.61816406 108.05615234 C-167.95496474 106.24251083 -168.19959979 104.41227437 -168.4296875 102.58203125 C-169.20964868 96.68456971 -170.23670617 93.66407218 -175 90 C-175.33 89.67 -175.66 89.34 -176 89 C-184.81930901 89.15748766 -190.51459219 93.50771837 -196.8125 99.375 C-203.59801409 106.47538714 -205.33604803 114.23563445 -205.30078125 123.8046875 C-204.84601797 128.63580905 -203.13909089 132.68362018 -201 137 C-205.89691363 128.78582229 -207.4556037 121.75882226 -205.38671875 112.15234375 C-202.49798189 103.10436178 -196.66323614 96.50795098 -189 91 C-194.91833533 85.38516905 -200.87429538 82.93983662 -209.0625 82.5625 C-215.05001761 82.78529135 -219.56852998 84.57372543 -223.828125 88.82421875 C-225.28913824 90.50711484 -226.67287964 92.2103983 -228 94 C-225.25309165 88.65878931 -221.60525723 85.18935656 -216.125 82.6875 C-207.87741889 80.87303216 -201.56861185 82.46003509 -194 86 C-193.05125 86.763125 -192.1025 87.52625 -191.125 88.3125 C-189.14933225 90.26444429 -189.14933225 90.26444429 -186.6875 89.875 C-185.800625 89.58625 -184.91375 89.2975 -184 89 C-182.56434956 88.63840894 -181.12671435 88.28463445 -179.6875 87.9375 C-177.8621875 87.4734375 -177.8621875 87.4734375 -176 87 C-180.20880035 75.14108607 -185.37048875 66.99603283 -196.375 60.625 C-208.32205158 57.78046391 -218.23213355 61.70291943 -226 71 Z M23.875 75.125 C21.85088148 78.2286484 21.4914482 80.37933058 21 84 C21.90621094 83.46890625 22.81242187 82.9378125 23.74609375 82.390625 C36.08182612 75.2144276 46.32125176 69.54015647 61 71.375 C61.66 71.58125 62.32 71.7875 63 72 C63.495 72.99 63.495 72.99 64 74 C63.34 74.33 62.68 74.66 62 75 C62.66 75 63.32 75 64 75 C64.64730804 77.56213554 65.29289288 80.12468485 65.9375 82.6875 C66.21110352 83.7693457 66.21110352 83.7693457 66.49023438 84.87304688 C67.41825907 88.56827248 68.29798461 92.25345469 69 96 C69.33 96 69.66 96 70 96 C70.19814261 89.91591528 70.19814261 89.91591528 69 84 C71.30915033 86.30915033 70.93173934 90.86456033 71 94 C69.93138937 103.13722127 69.93138937 103.13722127 68 107 C68 105.35 68 103.7 68 102 C66.96326443 104.05012124 65.95216061 106.10402285 64.9921875 108.19140625 C55.70263475 127.90734513 37.83634422 150.08182789 18 160 C18 161.98 18 163.96 18 166 C18.66 166.33 19.32 166.66 20 167 C28.37795875 163.13804132 35.43190956 157.14826441 41.3125 150.125 C44.8917835 145.89047009 49.04255072 142.60425584 53.359375 139.1484375 C65.69916715 129.10866578 74.39380611 115.82896115 77 100 C77.29752234 96.86861846 77.38111524 93.76951967 77.375 90.625 C77.37411377 89.79790527 77.37322754 88.97081055 77.37231445 88.11865234 C77.2040182 79.39287597 74.83799159 72.2750846 70 65 C54.84524278 54.21680736 35.12185541 62.80546763 23.875 75.125 Z M-24 69 C-24.33 71.97 -24.66 74.94 -25 78 C-23.35 77.01 -21.7 76.02 -20 75 C-20.99 73.02 -21.98 71.04 -23 69 C-23.33 69 -23.66 69 -24 69 Z M-63.1875 78.5 C-69.89095658 81.2614264 -76.6935623 83.62318603 -83.5625 85.9375 C-92.4704749 88.95833862 -100.77035185 92.43589704 -109 97 C-106.03045171 97.98984943 -104.51318337 98.05284123 -101.45605469 97.85400391 C-100.53789978 97.79709381 -99.61974487 97.74018372 -98.67376709 97.68154907 C-97.6831427 97.6139035 -96.69251831 97.54625793 -95.671875 97.4765625 C-94.64950745 97.41093109 -93.62713989 97.34529968 -92.5737915 97.27767944 C-90.40822345 97.13746414 -88.24284012 96.99437074 -86.07763672 96.84863281 C-82.77741507 96.62684242 -79.47670308 96.41421039 -76.17578125 96.203125 C-74.07027696 96.06564746 -71.96480695 95.92764355 -69.859375 95.7890625 C-68.87684753 95.72546539 -67.89432007 95.66186829 -66.88201904 95.59634399 C-61.87679394 95.25640547 -56.95453376 94.79145633 -52 94 C-52.30987617 91.74963714 -52.62299818 89.49972106 -52.9375 87.25 C-53.11152344 85.99703125 -53.28554688 84.7440625 -53.46484375 83.453125 C-53.86049338 80.90017407 -54.30446422 78.4813709 -55 76 C-58.04322486 76 -60.38361191 77.32989798 -63.1875 78.5 Z M-24.46875 80.16796875 C-28.01071969 84.40568249 -30 90.51532314 -30 96 C-19.11 96 -8.22 96 3 96 C-0.19224552 92.0096931 -1.79034938 90.22197914 -5.8125 87.625 C-9.9184367 84.8654709 -13.29158646 81.93107731 -16.625 78.28515625 C-19.57454056 75.52834135 -21.83924506 77.93160058 -24.46875 80.16796875 Z M20 87 C18.59394213 90.13727537 18.59394213 90.13727537 18 93 C19.25103516 92.49339844 19.25103516 92.49339844 20.52734375 91.9765625 C42.34049023 83.33126046 42.34049023 83.33126046 53.5625 87.5 C54.696875 87.995 55.83125 88.49 57 89 C57 89.33 57 89.66 57 90 C55.80375 89.505 54.6075 89.01 53.375 88.5 C49.78898524 87.14088765 46.86595201 86.7100536 43 87 C43.28875 87.66644531 43.5775 88.33289063 43.875 89.01953125 C47.93248199 99.09279384 48.34888188 107.1902953 44.2890625 117.33984375 C42.2656248 121.51548337 39.75768454 125.27712587 37 129 C38.14394666 126.70105405 39.30196012 124.41049695 40.47265625 122.125 C40.99730469 121.09375 41.52195312 120.0625 42.0625 119 C42.58972656 117.96875 43.11695313 116.9375 43.66015625 115.875 C46.50310879 109.77467034 46.76541527 103.6607414 46 97 C44.67543152 93.43385409 43.00110612 90.23035702 41 87 C32.62805575 87.9558519 25.02038937 90.20056715 18 95 C12.99032858 101.63008365 8.95612937 111.7529496 8 120 C9.41197698 123.61325787 11.00048179 125.28879183 13.84375 127.8828125 C17.22866436 131.20640594 17.34459261 134.4121483 18 139 C19.20661577 140.43433481 19.20661577 140.43433481 22.75 140.125 C25.94588316 140.09051205 28.88691725 139.77827069 32 139 C26.87080814 141.10428384 22.4389165 141.21755666 17 141 C15.52806688 143.94386623 16.15063827 146.37390036 16.4375 149.625 C16.53933594 150.81351562 16.64117187 152.00203125 16.74609375 153.2265625 C16.82988281 154.14179688 16.91367187 155.05703125 17 156 C19.85698533 157.30571717 19.85698533 157.30571717 22.05859375 156.20703125 C34.9945084 148.62390887 44.1832187 136.87331349 53 125 C53.68191406 124.08992188 54.36382812 123.17984375 55.06640625 122.2421875 C62.57886832 111.89024193 68.2394277 101.5000453 66.47265625 88.421875 C65.47948595 83.33290323 63.8754282 79.35550172 61.0625 75 C48.56312692 66.83714411 29.55640576 78.1953841 20 87 Z M14 93 C15 95 15 95 15 95 Z M68 97 C68 98.65 68 100.3 68 102 C68.33 102 68.66 102 69 102 C69 100.35 69 98.7 69 97 C68.67 97 68.34 97 68 97 Z M-2.6875 101 C-7.06710125 103.64428755 -10.97615056 103.77707024 -16 103 C-16.66 102.34 -17.32 101.68 -18 101 C-21.58343976 100.83322718 -21.58343976 100.83322718 -25 101 C-21.28890144 105.2820368 -18.05194762 106.64947003 -12.44921875 107.29296875 C-6.38814076 107.6031484 -2.49100072 106.80510865 2.5390625 103.38671875 C4.27609941 101.95564413 4.27609941 101.95564413 5 99 C1.44684757 98.58198207 0.24602873 98.81690885 -2.6875 101 Z M-61.4375 102 C-68.23388493 105.57083917 -74.43828 106.01342639 -82 105 C-82.63808594 104.67257813 -83.27617187 104.34515625 -83.93359375 104.0078125 C-87.02032597 102.5023741 -90.18883471 102.52679908 -93.5625 102.375 C-94.26761719 102.33705322 -94.97273438 102.29910645 -95.69921875 102.26000977 C-101.46657235 101.9709867 -107.22605821 101.88990365 -113 102 C-110.89756928 104.10243072 -109.80331584 104.56316328 -107.04296875 105.47265625 C-106.25986328 105.73240234 -105.47675781 105.99214844 -104.66992188 106.25976562 C-103.85072266 106.52466797 -103.03152344 106.78957031 -102.1875 107.0625 C-101.37990234 107.33126953 -100.57230469 107.60003906 -99.74023438 107.87695312 C-92.57405691 110.23046432 -86.28556131 111.20282904 -78.75 111.25 C-77.53763672 111.2809375 -77.53763672 111.2809375 -76.30078125 111.3125 C-68.50716452 111.36237915 -61.31460706 109.9542276 -55.5 104.4375 C-54.8503125 103.83808594 -54.200625 103.23867187 -53.53125 102.62109375 C-51.91030192 101.06149744 -51.91030192 101.06149744 -51 99 C-55.42006924 98.61634119 -57.67943017 99.74828549 -61.4375 102 Z M-62.125 115.75 C-62.74375 116.4925 -63.3625 117.235 -64 118 C-61.15389728 117.07693966 -58.32951895 116.12762321 -55.5390625 115.046875 C-49.08682532 112.56951173 -42.83610289 111.00492035 -36 110 C-36 109.67 -36 109.34 -36 109 C-45.65625504 108.45513294 -54.83489904 108.60244292 -62.125 115.75 Z M-59 118 C-59 118.33 -59 118.66 -59 119 C-57.66679321 119.02777514 -56.33340287 119.04673341 -55 119.0625 C-53.88625 119.07990234 -53.88625 119.07990234 -52.75 119.09765625 C-49.85497909 119.04246516 -49.85497909 119.04246516 -46.4375 118.5 C-40.96871671 117.7759259 -35.50666825 117.89270232 -30 117.9375 C-28.40865234 117.94426758 -28.40865234 117.94426758 -26.78515625 117.95117188 C-24.19004402 117.96286157 -21.59505291 117.97924724 -19 118 C-21.57498808 115.42501192 -23.83827942 114.93733245 -27.3125 113.875 C-29.00826172 113.34519531 -29.00826172 113.34519531 -30.73828125 112.8046875 C-40.12961443 110.48778374 -50.49849528 113.84810235 -59 118 Z M6 115 C4.64172029 116.64639965 3.30745749 118.31295807 2 120 C3.32 120.33 4.64 120.66 6 121 C6.33 119.02 6.66 117.04 7 115 C6.67 115 6.34 115 6 115 Z M-71 119 C-71.99 119.66 -72.98 120.32 -74 121 C-72.35 120.67 -70.7 120.34 -69 120 C-69.66 119.67 -70.32 119.34 -71 119 Z M-42.43017578 119.50317383 C-43.54208282 119.61361526 -44.65398987 119.7240567 -45.79959106 119.83784485 C-50.89515715 120.35385073 -55.99035497 120.87328467 -61.08496094 121.39868164 C-63.76705471 121.67469727 -66.44962782 121.94500802 -69.1328125 122.21020508 C-73.00888991 122.59508924 -76.88338647 122.99340281 -80.7578125 123.39453125 C-81.94875519 123.51029007 -83.13969788 123.62604889 -84.36672974 123.74531555 C-95.35795332 124.85189283 -95.35795332 124.85189283 -105.15625 129.578125 C-108.37644215 133.58464314 -110.2922103 136.64281108 -110 142 C-107.09082496 147.04257008 -104.05322269 148.93574891 -98.49609375 150.46875 C-88.36419101 152.6251487 -79.14520038 151.48565622 -69 150 C-66.33468309 149.65457034 -63.66774017 149.32641982 -61 149 C-64.55851464 150.65455035 -68.12244997 152.29708464 -71.6875 153.9375 C-73.19860352 154.64036133 -73.19860352 154.64036133 -74.74023438 155.35742188 C-75.71669922 155.80537109 -76.69316406 156.25332031 -77.69921875 156.71484375 C-78.59471436 157.12855225 -79.49020996 157.54226074 -80.4128418 157.96850586 C-83 159 -83 159 -85.61547852 159.31420898 C-88.20559852 159.80975499 -88.20559852 159.80975499 -89.80175781 162.26220703 C-90.34670898 163.25075684 -90.89166016 164.23930664 -91.453125 165.2578125 C-92.06857178 166.35206543 -92.68401855 167.44631836 -93.31811523 168.57373047 C-93.96245181 169.75728291 -94.60640672 170.94104321 -95.25 172.125 C-95.91372516 173.31882942 -96.57917656 174.51170073 -97.24633789 175.70361328 C-98.24081707 177.48063719 -99.23415101 179.25817071 -100.22108459 181.03939819 C-103.47217276 186.89882093 -106.98810231 192.57411453 -110.55859375 198.2421875 C-112.30880626 201.07220239 -112.30880626 201.07220239 -112 205 C-113.3125 206.5625 -113.3125 206.5625 -115 208 C-117.61986265 210.38633729 -119.40012033 212.98272053 -121.25 216 C-121.79140625 216.86625 -122.3328125 217.7325 -122.890625 218.625 C-124.36120807 221.06305249 -124.36120807 221.06305249 -123 224 C-123.27571139 226.00875442 -123.60235737 228.01178687 -124 230 C-125.98 230.495 -125.98 230.495 -128 231 C-128.52938657 232.95603851 -129.04826801 234.91492289 -129.5625 236.875 C-129.85253906 237.96554687 -130.14257812 239.05609375 -130.44140625 240.1796875 C-131.2867036 242.9369822 -131.2867036 242.9369822 -130 245 C-130.27942455 246.67654729 -130.60828247 248.34608154 -131 250 C-131.33 250 -131.66 250 -132 250 C-132.72967439 262.40446468 -129.25692974 273.54523461 -121.265625 283.06640625 C-117.92027564 286.61158843 -114.7130965 289.49180912 -110 291 C-106.19370204 291.03738996 -102.51379663 290.35858873 -98.81811523 289.4831543 C-90.22397485 287.55877782 -81.70626937 287.83993373 -72.95687866 287.96365356 C-47.28917297 288.64648282 -47.28917297 288.64648282 -22 285 C-22.495 280.545 -22.495 280.545 -23 276 C-22.34 276 -21.68 276 -21 276 C-20.67 278.64 -20.34 281.28 -20 284 C-16.09366863 285.30211046 -13.80461827 284.47812346 -9.8125 283.5625 C-8.54019531 283.27503906 -7.26789063 282.98757813 -5.95703125 282.69140625 C-4.98121094 282.46324219 -4.00539063 282.23507812 -3 282 C-4.7622571 262.45735788 -10.96987993 245.82691906 -19 228 C-15.69256759 233.00382516 -13.04182605 237.84282618 -10.875 243.4375 C-10.62347168 244.08275635 -10.37194336 244.7280127 -10.11279297 245.39282227 C-8.25060503 250.21483907 -6.55628479 255.07176483 -5 260 C-3.38534863 255.95829407 -4.68995028 252.89908293 -5.9375 248.875 C-8 242.14915254 -8 242.14915254 -8 240 C-3.17926718 253.43326734 0.13602058 266.6698586 1 281 C4.00259517 281.33218192 4.00259517 281.33218192 5.6875 279.5 C6.120625 279.005 6.55375 278.51 7 278 C7.33 278.66 7.66 279.32 8 280 C14.27 279.01 20.54 278.02 27 277 C26.01 273.535 26.01 273.535 25 270 C25.66 270 26.32 270 27 270 C27.33 272.31 27.66 274.62 28 277 C28.66 277 29.32 277 30 277 C31.00496852 273.98509443 31.10335303 271.95818308 31.0625 268.8125 C31.05347656 267.91144531 31.04445313 267.01039063 31.03515625 266.08203125 C31.02355469 265.39496094 31.01195312 264.70789063 31 264 C31.66 264 32.32 264 33 264 C33.33 264.66 33.66 265.32 34 266 C36.17245245 253.13239704 36.19046929 241.57140788 32 229 C31.01 229 30.02 229 29 229 C29.21914063 228.16082031 29.43828125 227.32164062 29.6640625 226.45703125 C30.06913657 222.28853645 29.00798563 219.42714713 27.375 215.6875 C27.09938232 215.02814453 26.82376465 214.36878906 26.53979492 213.68945312 C24.68649576 209.34179995 22.62841231 205.170577 20.17578125 201.125 C18.54772851 198.18260568 17.29489314 195.0983748 16 192 C15.32942203 190.42783156 14.65745606 188.85625469 13.984375 187.28515625 C13.62456543 186.44162598 13.26475586 185.5980957 12.89404297 184.72900391 C12.11334224 182.90936811 11.32559356 181.09274405 10.53173828 179.27880859 C8.66457245 174.99688393 6.86883121 170.74673101 5.3828125 166.31640625 C3.00116776 159.517556 0.846789 154.79035341 -5.83740234 151.41748047 C-8.85100576 150.10091204 -11.86650116 149.00013863 -15 148 C-14.15405273 148.0314209 -14.15405273 148.0314209 -13.29101562 148.06347656 C-10.69419751 148.14748501 -8.09766638 148.19892229 -5.5 148.25 C-4.1696875 148.30027344 -4.1696875 148.30027344 -2.8125 148.3515625 C4.28400871 148.45592292 9.66690487 147.02061746 15 142.1875 C16.49899955 138.90843847 16.4304004 136.56617473 16 133 C13.51534806 128.12625965 10.67527906 125.73230595 6 123 C-4.83404094 119.7485745 -15.79373774 119.62553332 -27 120 C-26.95359375 121.17175781 -26.9071875 122.34351563 -26.859375 123.55078125 C-26.82180781 125.13799498 -26.78541304 126.72523675 -26.75 128.3125 C-26.71648437 129.07884766 -26.68296875 129.84519531 -26.6484375 130.63476562 C-26.57004401 135.35797346 -27.19997104 138.90445025 -28.984375 143.29296875 C-31.45559593 149.56822242 -31.61144792 155.31264423 -31.5 162 C-31.48646484 163.18408447 -31.47292969 164.36816895 -31.45898438 165.58813477 C-30.96098056 186.95452538 -23.62834574 204.74111924 -15 224 C-19.90321261 214.52207785 -24.52236832 205.11433336 -28 195 C-28.29648437 194.18273437 -28.59296875 193.36546875 -28.8984375 192.5234375 C-32.03562296 182.73914621 -32.24919712 172.18638662 -33 162 C-33.33 162 -33.66 162 -34 162 C-34.33 163.98 -34.66 165.96 -35 168 C-34.21796971 160.07679833 -33.33368474 152.5489602 -30.875 144.9375 C-28.60956191 137.57482621 -26.93302306 127.90709792 -30.0234375 120.5703125 C-30.34570312 120.05210937 -30.66796875 119.53390625 -31 119 C-32.3271261 122.9813783 -32.06915913 126.85045227 -32 131 C-32.99 125.06 -32.99 125.06 -34 119 C-36.85965099 119 -39.58574622 119.21971422 -42.43017578 119.50317383 Z M7.85546875 148.19921875 C5.58780382 149.1778952 3.2978488 150.09478684 1 151 C3.29824964 160.10544621 7.1402523 168.4768311 11 177 C11.99 176.67 12.98 176.34 14 176 C15.32 180.95 16.64 185.9 18 191 C19.19500004 187.41499987 18.87799941 185.0716831 18.51171875 181.3125 C18.44845901 180.65475586 18.38519928 179.99701172 18.32002258 179.31933594 C18.18428303 177.92368791 18.04538157 176.52834434 17.90356445 175.13330078 C17.69116589 173.03619493 17.49026133 170.9382352 17.29101562 168.83984375 C16.54188074 161.15479444 15.55283652 153.57070459 14 146 C11.80766022 146 9.83778094 147.33681077 7.85546875 148.19921875 Z M-172.0625 155.8125 C-179.57038987 161.40348182 -188.84739822 162.18638739 -198 162 C-204.34035237 161.04723354 -210.05144968 159.37942013 -216 157 C-215.34 161.29 -214.68 165.58 -214 170 C-209.16196154 170.04975831 -204.32407491 170.08588788 -199.48583984 170.10986328 C-197.84290977 170.11986737 -196.19999726 170.13347494 -194.55712891 170.15087891 C-192.18387495 170.17537515 -189.81085815 170.18653917 -187.4375 170.1953125 C-186.35106201 170.21079636 -186.35106201 170.21079636 -185.24267578 170.22659302 C-180.19283085 170.2276826 -175.85989233 169.38239063 -171 168 C-170.67 166.68 -170.34 165.36 -170 164 C-173.96 164.99 -177.92 165.98 -182 167 C-180.27339773 166.42446591 -178.54425308 165.85620819 -176.80859375 165.30859375 C-172.03721876 163.68582064 -172.03721876 163.68582064 -168.96875 159.95703125 C-168.33408599 157.5140303 -168.33408599 157.5140303 -168 154 C-170.20723426 153.7799618 -170.20723426 153.7799618 -172.0625 155.8125 Z M-224 158 C-224.33 158.66 -224.66 159.32 -225 160 C-224.34 160 -223.68 160 -223 160 C-223.33 159.34 -223.66 158.68 -224 158 Z M-221 158 C-220.67 159.32 -220.34 160.64 -220 162 C-219.67 161.34 -219.34 160.68 -219 160 C-219.66 159.34 -220.32 158.68 -221 158 Z M-224 161 C-224.99 162.485 -224.99 162.485 -226 164 C-223.525 164.495 -223.525 164.495 -221 165 C-221.33 163.68 -221.66 162.36 -222 161 C-222.66 161 -223.32 161 -224 161 Z M-219 162 C-218 164 -218 164 -218 164 Z M30 226 C31 228 31 228 31 228 Z M-160 255 C-160.33 258.63 -160.66 262.26 -161 266 C-161.99 263.69 -162.98 261.38 -164 259 C-164.33 259 -164.66 259 -165 259 C-165.03092239 259.70220169 -165.06184479 260.40440338 -165.09370422 261.12788391 C-165.38937453 267.79148577 -165.69713836 274.45441089 -166.01801777 281.11684895 C-166.1825156 284.54093835 -166.34256106 287.96510778 -166.49194336 291.38989258 C-166.66444681 295.34004881 -166.8571944 299.28910011 -167.05078125 303.23828125 C-167.10091873 304.45018631 -167.15105621 305.66209137 -167.20271301 306.91072083 C-167.5843997 314.31264176 -168.7373346 320.94607186 -171 328 C-172.43725425 332.41840127 -172.43725425 332.41840127 -173 337 C-169.70211847 341.88996228 -163.94577603 344.86918765 -159 348 C-158.154375 348.556875 -157.30875 349.11375 -156.4375 349.6875 C-153.62811226 351.20024725 -150.77197401 352.28377215 -147.76953125 353.3515625 C-146 354 -146 354 -144 355 C-143.13375 355.12375 -142.2675 355.2475 -141.375 355.375 C-138.61390366 355.88631414 -136.55995471 356.51792078 -134 357.5625 C-130.52191981 358.93647443 -127.76211032 359.17100501 -124 359 C-122.65938457 359.30271961 -121.32594105 359.63837971 -120 360 C-112.80326878 361.27001139 -106.14632089 361.47130136 -99 360 C-97.515 360.495 -97.515 360.495 -96 361 C-95.01 360.34 -94.02 359.68 -93 359 C-91.07367104 358.62474111 -89.13314334 358.31947176 -87.1875 358.0625 C-80.60856937 357.20324138 -80.60856937 357.20324138 -75 354 C-72.68824737 347.33046082 -74.51521329 340.86816395 -76.23046875 334.2734375 C-77.34089759 329.54988742 -77.7190266 324.83468021 -78 320 C-79.10794922 319.58041016 -79.10794922 319.58041016 -80.23828125 319.15234375 C-91.84570661 314.56541962 -101.5652193 308.12866285 -111 300 C-111.75023437 299.36964844 -112.50046875 298.73929687 -113.2734375 298.08984375 C-120.23905984 291.74746131 -124.50932038 283.92797708 -128.99780273 275.75830078 C-129.92648978 274.1289697 -130.95970723 272.56043916 -132 271 C-131.505 274.465 -131.505 274.465 -131 278 C-131.66 278 -132.32 278 -133 278 C-133.28875 277.38125 -133.5775 276.7625 -133.875 276.125 C-134.93720042 273.86674235 -134.93720042 273.86674235 -137 272 C-136.505 275.465 -136.505 275.465 -136 279 C-139.68006822 275.61831569 -141.9785845 272.57478244 -144 268 C-144.33 268 -144.66 268 -145 268 C-145.20674944 273.78898419 -144.59162079 278.42932723 -143 284 C-146.89801499 280.61533966 -148.81278063 276.88230202 -151 272.3125 C-151.34740234 271.60222656 -151.69480469 270.89195312 -152.05273438 270.16015625 C-154.48581312 265.1570525 -156.80834438 260.11386312 -159 255 C-159.33 255 -159.66 255 -160 255 Z M-4 260 C-3 264 -3 264 -3 264 Z M-138 270 C-137 272 -137 272 -137 272 Z M14 280.75 C12.96818604 280.9368335 11.93637207 281.12366699 10.87329102 281.31616211 C5.53425257 282.29270847 0.23524037 283.38171639 -5.0625 284.5625 C-28.33077642 289.17082747 -51.96849544 289.42187748 -75.59887695 289.53369141 C-86.11585656 289.61692816 -95.88918548 289.77479688 -106 293 C-106 293.33 -106 293.66 -106 294 C-95.01736166 295.44766103 -84.03561182 296.60645077 -73 297.5625 C-57.10101231 298.95192242 -57.10101231 298.95192242 -52.6328125 299.57421875 C-36.97804915 301.40902435 -22.1979693 299.98901971 -7.375 294.625 C1.31890467 291.56739794 10.28052371 290.21423835 19.36572266 288.78759766 C20.5366748 288.5972998 21.70762695 288.40700195 22.9140625 288.2109375 C23.9654541 288.04899902 25.0168457 287.88706055 26.10009766 287.72021484 C29.18931473 286.95298211 31.37025302 285.76709789 34 284 C33.51294288 281.93597032 33.51294288 281.93597032 32 280 C25.76067894 278.41287795 20.23881969 279.55757836 14 280.75 Z M18.41772461 291.39282227 C14.3161188 293.32159368 10.40978466 294.15876664 5.98046875 295.0078125 C5.1224617 295.17876434 4.26445465 295.34971619 3.38044739 295.52584839 C1.57173993 295.88444494 -0.23779875 296.2388714 -2.0480957 296.58935547 C-4.79510764 297.12162997 -7.53924142 297.66708492 -10.28320312 298.21484375 C-12.04932513 298.56328166 -13.8155967 298.91096251 -15.58203125 299.2578125 C-16.39170853 299.41823029 -17.2013858 299.57864807 -18.03559875 299.743927 C-25.06135259 301.09734259 -32.10132982 302.27888346 -39.27734375 301.9140625 C-40.19394775 301.87079834 -41.11055176 301.82753418 -42.05493164 301.78295898 C-43.48180298 301.70476929 -43.48180298 301.70476929 -44.9375 301.625 C-45.94095459 301.57609619 -46.94440918 301.52719238 -47.97827148 301.47680664 C-52.65625191 301.24478238 -57.33228263 300.98378484 -62.0078125 300.70703125 C-62.77319336 300.6618335 -63.53857422 300.61663574 -64.32714844 300.57006836 C-65.80444677 300.48245663 -67.28166321 300.39345165 -68.75878906 300.30297852 C-73.41201222 300.03485007 -78.02444209 299.99378125 -82.6875 300.0625 C-87.62350623 300.11956366 -91.34634757 299.51749536 -96 298 C-98.1363756 298.39565628 -98.1363756 298.39565628 -100 299 C-97.46083825 299.98611151 -94.9189977 300.96400876 -92.375 301.9375 C-91.66214844 302.21529297 -90.94929687 302.49308594 -90.21484375 302.77929688 C-89.51230469 303.04677734 -88.80976563 303.31425781 -88.0859375 303.58984375 C-87.1276001 303.95903931 -87.1276001 303.95903931 -86.14990234 304.33569336 C-80.25546031 306.1570398 -74.19795034 306.27607042 -68.08203125 306.53515625 C-66.63877724 306.59996185 -66.63877724 306.59996185 -65.16636658 306.66607666 C-62.04861559 306.80363441 -58.93064609 306.93422335 -55.8125 307.0625 C-54.22157532 307.12828751 -54.22157532 307.12828751 -52.59851074 307.19540405 C-10.99236251 311.14756472 -10.99236251 311.14756472 27.625 299.1875 C29.57255909 296.08911054 29.27505902 293.57576728 29 290 C23.488985 289.57601198 23.488985 289.57601198 18.41772461 291.39282227 Z " fill="#000000" transform="translate(410,142)"/>
<path d="M0 0 C3.43235916 2.8986191 6.75339516 5.92360544 9.6328125 9.37890625 C9.6328125 10.03890625 9.6328125 10.69890625 9.6328125 11.37890625 C6.74207563 10.05977087 4.5884155 8.59146958 2.2578125 6.44140625 C-4.10166724 0.94059044 -9.99865669 -0.78801923 -18.3671875 -0.62109375 C-26.16370937 0.46999559 -31.41408617 3.39560839 -37.3671875 8.37890625 C-38.3571875 8.87390625 -38.3571875 8.87390625 -39.3671875 9.37890625 C-36.90477615 3.11095008 -31.4615155 0.77974485 -25.6484375 -1.7890625 C-17.79849039 -4.65214253 -7.11513868 -4.8447301 0 0 Z " fill="#000000" transform="translate(219.3671875,198.62109375)"/>
<path d="M0 0 C0.66 0.66 1.32 1.32 2 2 C1.67 2.99 1.34 3.98 1 5 C0.236875 4.360625 -0.52625 3.72125 -1.3125 3.0625 C-6.43860242 -0.87148558 -11.78434422 -0.55996899 -18 0 C-25.21553865 1.6612752 -30.87130606 4.94156885 -36.7109375 9.4140625 C-39.06463475 11.04478107 -41.31116872 12.04038177 -44 13 C-41.04008806 8.81529691 -37.80961758 6.31506037 -33.375 3.875 C-32.75544434 3.52953125 -32.13588867 3.1840625 -31.49755859 2.828125 C-20.79838517 -2.97106494 -11.41076629 -5.1151711 0 0 Z " fill="#000000" transform="translate(478,208)"/>
<path d="M0 0 C0.33 0 0.66 0 1 0 C1.09796875 0.87140625 1.1959375 1.7428125 1.296875 2.640625 C2.22186216 10.00862614 3.63503087 16.63352584 6.29296875 23.57421875 C7 26 7 26 6 29 C1.21753047 20.58945014 -1.88792663 10.76719288 -1 1 C-0.67 0.67 -0.34 0.34 0 0 Z " fill="#000000" transform="translate(166,248)"/>
<path d="M0 0 C11.89771646 -0.57159848 11.89771646 -0.57159848 17 3 C18.9375 4.875 18.9375 4.875 20 7 C19.6875 9.75 19.6875 9.75 19 12 C18.67 12 18.34 12 18 12 C17.79375 11.071875 17.5875 10.14375 17.375 9.1875 C16.26375828 5.88038631 16.26375828 5.88038631 13.5625 4.1875 C8.74875617 2.58291872 4.04608079 2.26038495 -1 2 C-0.67 1.34 -0.34 0.68 0 0 Z " fill="#000000" transform="translate(398,271)"/>
<path d="M0 0 C1.21042969 0.00644531 2.42085938 0.01289063 3.66796875 0.01953125 C6.8125 0.1875 6.8125 0.1875 9.8125 1.1875 C9.8125 1.8475 9.8125 2.5075 9.8125 3.1875 C8.678125 3.15269531 7.54375 3.11789062 6.375 3.08203125 C-4.72457653 2.81871832 -4.72457653 2.81871832 -15.1875 6.1875 C-16.1775 6.1875 -17.1675 6.1875 -18.1875 6.1875 C-12.46429093 1.13760964 -7.56466155 -0.08918679 0 0 Z " fill="#000000" transform="translate(328.1875,271.8125)"/>
<path d="M0 0 C0.66 0.495 1.32 0.99 2 1.5 C1.875 3.8125 1.875 3.8125 1 6.5 C-4.51775948 10.09853879 -9.56391487 9.9340111 -15.8984375 9.93945312 C-19.50190265 10.0320954 -21.56551928 10.15976072 -24.44921875 12.41796875 C-27.39394429 16.37146677 -28.3313495 19.59656301 -29 24.5 C-29.33 24.5 -29.66 24.5 -30 24.5 C-30.58774761 17.09438014 -29.46969416 12.48961535 -25 6.5 C-18.72106019 -0.47991409 -8.91571056 -4.45785528 0 0 Z " fill="#000000" transform="translate(411,276.5)"/>
<path d="M0 0 C4.32206418 4.74372898 7.31902102 9.98814384 7.875 16.4375 C7.771875 17.22125 7.66875 18.005 7.5625 18.8125 C5.5625 17.8125 5.5625 17.8125 4.8515625 15.88671875 C4.63242187 15.09910156 4.41328125 14.31148438 4.1875 13.5 C2.98587531 9.66334045 1.82016807 7.3345656 -1.4375 4.8125 C-4.20337399 3.42956301 -6.11541106 3.94653756 -9.1875 4.25 C-14.0861957 4.65777156 -18.95962751 4.96325231 -23.875 5.0625 C-25.54369141 5.10117187 -25.54369141 5.10117187 -27.24609375 5.140625 C-30.9277152 4.76209844 -33.29997101 3.75038555 -36.4375 1.8125 C-37.5 -0.6875 -37.5 -0.6875 -37.4375 -3.1875 C-35.92316488 -5.74294051 -34.23159812 -6.27511782 -31.5 -7.4375 C-20.76488703 -10.07617272 -8.79641348 -6.32171915 0 0 Z " fill="#000000" transform="translate(356.4375,284.1875)"/>
<path d="M0 0 C0.33 0 0.66 0 1 0 C1 2.97 1 5.94 1 9 C0.34 9 -0.32 9 -1 9 C-1.09765625 2.84765625 -1.09765625 2.84765625 -1 1 C-0.67 0.67 -0.34 0.34 0 0 Z " fill="#000000" transform="translate(340,306)"/>
<path d="M0 0 C2.52480693 2.52480693 2.55738633 4.13823034 3.125 7.625 C3.29257812 8.62789063 3.46015625 9.63078125 3.6328125 10.6640625 C3.75398438 11.43492187 3.87515625 12.20578125 4 13 C1.26734423 10.67273822 0.45596502 8.87066551 -0.25 5.375 C-0.42015625 4.57835937 -0.5903125 3.78171875 -0.765625 2.9609375 C-0.84296875 2.31382812 -0.9203125 1.66671875 -1 1 C-0.67 0.67 -0.34 0.34 0 0 Z " fill="#000000" transform="translate(347,308)"/>
<path d="M0 0 C4.20626034 1.50223584 5.73900021 4.28550034 8 8 C6.25 7.9375 6.25 7.9375 4 7 C2.40498463 4.75835678 1.25456982 2.46433357 0 0 Z " fill="#000000" transform="translate(413,325)"/>
<path d="M0 0 C0.99 0.495 0.99 0.495 2 1 C2.59355614 3.64860427 2.74209269 6.29197322 3 9 C2.01 9.495 2.01 9.495 1 10 C-0.60725635 6.78548731 -0.05748185 3.56387464 0 0 Z " fill="#000000" transform="translate(394,329)"/>
<path d="M0 0 C1 3 1 3 -0.4375 6.1875 C-1.2109375 7.5796875 -1.2109375 7.5796875 -2 9 C-2.66 9 -3.32 9 -4 9 C-2.94124926 5.59687262 -1.99097846 2.98646769 0 0 Z " fill="#000000" transform="translate(307,333)"/>
<path d="M0 0 C0.33 0 0.66 0 1 0 C0.67 3.63 0.34 7.26 0 11 C-0.66 11 -1.32 11 -2 11 C-1.85892253 9.54119891 -1.71197585 8.08296449 -1.5625 6.625 C-1.48128906 5.81289063 -1.40007812 5.00078125 -1.31640625 4.1640625 C-1 2 -1 2 0 0 Z " fill="#000000" transform="translate(252,336)"/>
<path d="M0 0 C0.33 0 0.66 0 1 0 C1.33 2.97 1.66 5.94 2 9 C1.01 9.495 1.01 9.495 0 10 C-1.49106457 7.01787087 -1.11941467 4.28390342 -1 1 C-0.67 0.67 -0.34 0.34 0 0 Z " fill="#000000" transform="translate(363,336)"/>
<path d="M0 0 C2.29744275 3.44616412 3.63470079 7.01889994 5.0625 10.875 C5.33126953 11.58269531 5.60003906 12.29039062 5.87695312 13.01953125 C7.23541609 16.65790838 8.38799576 20.14663997 9 24 C6.63178069 21.87137029 5.44702459 20.12590354 4.39453125 17.12890625 C4.13349609 16.38962891 3.87246094 15.65035156 3.60351562 14.88867188 C3.34248047 14.12103516 3.08144531 13.35339844 2.8125 12.5625 C2.40354492 11.4168457 2.40354492 11.4168457 1.98632812 10.24804688 C0.6925822 6.52244772 0 4.02986241 0 0 Z " fill="#000000" transform="translate(380,338)"/>
<path d="M0 0 C0.66 0 1.32 0 2 0 C2 5.94 2 11.88 2 18 C1.34 18 0.68 18 0 18 C0 12.06 0 6.12 0 0 Z " fill="#000000" transform="translate(254,340)"/>
<path d="M0 0 C0.33 0 0.66 0 1 0 C1.125 5.75 1.125 5.75 0 8 C-0.66 8 -1.32 8 -2 8 C-1.125 1.125 -1.125 1.125 0 0 Z " fill="#000000" transform="translate(328,343)"/>
<path d="M0 0 C0.66 0 1.32 0 2 0 C1.34 3.96 0.68 7.92 0 12 C-0.66 12 -1.32 12 -2 12 C-1.85904936 10.3745692 -1.71207913 8.74965949 -1.5625 7.125 C-1.48128906 6.22007812 -1.40007812 5.31515625 -1.31640625 4.3828125 C-1 2 -1 2 0 0 Z " fill="#000000" transform="translate(317,344)"/>
<path d="M0 0 C1 3 1 3 0.22265625 5.04296875 C-0.16019531 5.75066406 -0.54304688 6.45835937 -0.9375 7.1875 C-1.31777344 7.90292969 -1.69804687 8.61835938 -2.08984375 9.35546875 C-2.54037109 10.16951172 -2.54037109 10.16951172 -3 11 C-3.33 11 -3.66 11 -4 11 C-3.56179109 6.44262737 -3.14958831 3.42346555 0 0 Z " fill="#000000" transform="translate(349,344)"/>
<path d="M0 0 C0.33 0 0.66 0 1 0 C1 3.3 1 6.6 1 10 C0.34 10 -0.32 10 -1 10 C-1.125 2.25 -1.125 2.25 0 0 Z " fill="#000000" transform="translate(375,348)"/>
<path d="M0 0 C3.0916909 2.52956528 3.90931332 5.22454612 5 9 C2 8 2 8 0.8125 6.1875 C0 4 0 4 0 0 Z " fill="#000000" transform="translate(398,348)"/>
<path d="M0 0 C0.66 0 1.32 0 2 0 C2.99 2.97 3.98 5.94 5 9 C4.01 8.67 3.02 8.34 2 8 C0.5522078 5.10441559 0 3.25811062 0 0 Z " fill="#000000" transform="translate(421,350)"/>
<path d="M0 0 C0.66 0 1.32 0 2 0 C1.25 7.75 1.25 7.75 -1 10 C-1.125 3.375 -1.125 3.375 0 0 Z " fill="#000000" transform="translate(356,353)"/>
<path d="M0 0 C0.98120464 3.05263664 0.98120464 4.94736336 0 8 C-0.66 8 -1.32 8 -2 8 C-1.125 1.125 -1.125 1.125 0 0 Z " fill="#000000" transform="translate(366,353)"/>
<path d="M0 0 C1.25541557 3.76624671 0.37061958 5.37188934 -1 9 C-1.66 9 -2.32 9 -3 9 C-2.25 2.25 -2.25 2.25 0 0 Z " fill="#000000" transform="translate(333,356)"/>
<path d="M0 0 C3.75376152 1.25125384 4.24073289 2.5652404 6 6 C6 6.66 6 7.32 6 8 C4.125 7.375 4.125 7.375 2 6 C0.75 2.875 0.75 2.875 0 0 Z " fill="#000000" transform="translate(394,356)"/>
<path d="M0 0 C2.37140731 2.37140731 2.31252181 3.08663622 2.5625 6.33203125 C2.6361377 7.20770752 2.70977539 8.08338379 2.78564453 8.9855957 C2.85638184 9.91847412 2.92711914 10.85135254 3 11.8125 C3.68766728 19.9498962 4.59626424 27.95091944 6 36 C5.34 35.67 4.68 35.34 4 35 C0.66654201 23.38872048 -0.18271408 11.99822478 0 0 Z " fill="#000000" transform="translate(249,358)"/>
<path d="M0 0 C3.33773709 3.64116773 3.97864902 7.28607242 5 12 C4.01 11.67 3.02 11.34 2 11 C0.37676246 7.24092359 -0.23994929 4.07913787 0 0 Z " fill="#000000" transform="translate(379,359)"/>
<path d="M0 0 C0.66 0 1.32 0 2 0 C1.67 3.63 1.34 7.26 1 11 C0.01 10.67 -0.98 10.34 -2 10 C-1.34 6.7 -0.68 3.4 0 0 Z " fill="#000000" transform="translate(310,360)"/>
<path d="M0 0 C0.66 0.66 1.32 1.32 2 2 C1.828125 4.34765625 1.828125 4.34765625 1.25 7.0625 C1.06953125 7.96097656 0.8890625 8.85945313 0.703125 9.78515625 C0.47109375 10.51605469 0.2390625 11.24695313 0 12 C-0.99 12.495 -0.99 12.495 -2 13 C-1.85851011 11.3954444 -1.71164314 9.79136233 -1.5625 8.1875 C-1.48128906 7.29417969 -1.40007812 6.40085937 -1.31640625 5.48046875 C-1 3 -1 3 0 0 Z " fill="#000000" transform="translate(320,363)"/>
<path d="M0 0 C0.66 0 1.32 0 2 0 C1.34 2.97 0.68 5.94 0 9 C-0.66 9 -1.32 9 -2 9 C-1.125 2.25 -1.125 2.25 0 0 Z " fill="#000000" transform="translate(344,364)"/>
<path d="M0 0 C1.07349791 4.29399165 0.79682816 5.19495213 -1 9 C-1.99 8.67 -2.98 8.34 -4 8 C-2.68 5.36 -1.36 2.72 0 0 Z " fill="#000000" transform="translate(301,367)"/>
<path d="M0 0 C0.33 0 0.66 0 1 0 C1 3.96 1 7.92 1 12 C0.34 11.67 -0.32 11.34 -1 11 C-1.02688151 9.35425434 -1.04634123 7.70838587 -1.0625 6.0625 C-1.07410156 5.14597656 -1.08570313 4.22945313 -1.09765625 3.28515625 C-1 1 -1 1 0 0 Z " fill="#000000" transform="translate(360,367)"/>
<path d="M0 0 C0.33 0 0.66 0 1 0 C1 2.64 1 5.28 1 8 C0.01 8.495 0.01 8.495 -1 9 C-1.625 6.1875 -1.625 6.1875 -2 3 C-1.34 2.01 -0.68 1.02 0 0 Z " fill="#000000" transform="translate(371,369)"/>
<path d="M0 0 C0.66 0 1.32 0 2 0 C2.66 6.27 3.32 12.54 4 19 C1.42994819 16.42994819 1.42826712 14.74860822 0.875 11.1875 C0.70742187 10.14980469 0.53984375 9.11210937 0.3671875 8.04296875 C0.03868319 5.32057663 -0.07084083 2.73749219 0 0 Z " fill="#000000" transform="translate(254,370)"/>
<path d="M0 0 C0.33 0 0.66 0 1 0 C0.67 2.31 0.34 4.62 0 7 C-0.99 7.33 -1.98 7.66 -3 8 C-1.125 1.125 -1.125 1.125 0 0 Z " fill="#000000" transform="translate(289,372)"/>
<path d="M0 0 C0.66 0.33 1.32 0.66 2 1 C1.67 3.64 1.34 6.28 1 9 C0.01 8.67 -0.98 8.34 -2 8 C-1.34 5.36 -0.68 2.72 0 0 Z " fill="#000000" transform="translate(349,374)"/>
<path d="M0 0 C2.52259061 1.97420135 2.9929808 2.96745642 3.6875 6.1875 C3.790625 7.115625 3.89375 8.04375 4 9 C3.34 9 2.68 9 2 9 C0.50178941 5.62902617 0 3.79557881 0 0 Z " fill="#000000" transform="translate(388,376)"/>
<path d="M0 0 C2.32947183 2.11770166 3.88750845 4.03335588 5 7 C4.67 7.99 4.34 8.98 4 10 C0 4.5 0 4.5 0 0 Z " fill="#000000" transform="translate(410,376)"/>
<path d="M0 0 C0.66 0.33 1.32 0.66 2 1 C1.34 4.3 0.68 7.6 0 11 C-0.66 11 -1.32 11 -2 11 C-1.85892253 9.54119891 -1.71197585 8.08296449 -1.5625 6.625 C-1.48128906 5.81289063 -1.40007812 5.00078125 -1.31640625 4.1640625 C-1 2 -1 2 0 0 Z " fill="#000000" transform="translate(332,377)"/>
<path d="M0 0 C3.67230705 3.07999946 4.56802365 5.2482602 5 10 C4.34 10 3.68 10 3 10 C2.01 6.7 1.02 3.4 0 0 Z " fill="#000000" transform="translate(420,378)"/>
<path d="M0 0 C0.33 0 0.66 0 1 0 C1 3.63 1 7.26 1 11 C0.34 10.67 -0.32 10.34 -1 10 C-1.02689216 8.52093108 -1.04634621 7.04172517 -1.0625 5.5625 C-1.07410156 4.73878906 -1.08570313 3.91507812 -1.09765625 3.06640625 C-1 1 -1 1 0 0 Z " fill="#000000" transform="translate(308,381)"/>
<path d="M0 0 C1.10191901 4.40767604 0.58706842 5.8922935 -1 10 C-1.66 9.67 -2.32 9.34 -3 9 C-2.01 6.03 -1.02 3.06 0 0 Z " fill="#000000" transform="translate(292,383)"/>
<path d="M0 0 C1.25541557 3.76624671 0.37061958 5.37188934 -1 9 C-1.66 9 -2.32 9 -3 9 C-2.69181644 7.68647977 -2.37832335 6.37420428 -2.0625 5.0625 C-1.88847656 4.33160156 -1.71445312 3.60070312 -1.53515625 2.84765625 C-1 1 -1 1 0 0 Z " fill="#000000" transform="translate(341,384)"/>
<path d="M0 0 C0.66 0.33 1.32 0.66 2 1 C1.34 3.64 0.68 6.28 0 9 C-0.66 8.67 -1.32 8.34 -2 8 C-1.34 5.36 -0.68 2.72 0 0 Z " fill="#000000" transform="translate(365,386)"/>
<path d="M0 0 C0.66 0 1.32 0 2 0 C3.42258812 3.82320557 4.24042276 6.91281305 4 11 C3.34 10.67 2.68 10.34 2 10 C1.3671875 7.71484375 1.3671875 7.71484375 0.875 4.9375 C0.70742188 4.01839844 0.53984375 3.09929687 0.3671875 2.15234375 C0.24601562 1.44207031 0.12484375 0.73179687 0 0 Z " fill="#000000" transform="translate(386,387)"/>
<path d="M0 0 C0.66 0 1.32 0 2 0 C1.67 2.64 1.34 5.28 1 8 C0.34 7.67 -0.32 7.34 -1 7 C-1.04254356 5.00045254 -1.04080783 2.99958364 -1 1 C-0.67 0.67 -0.34 0.34 0 0 Z " fill="#000000" transform="translate(354,390)"/>
<path d="M0 0 C0.66 0 1.32 0 2 0 C2.33 2.97 2.66 5.94 3 9 C2.34 9 1.68 9 1 9 C0.67 6.03 0.34 3.06 0 0 Z " fill="#000000" transform="translate(441,391)"/>
<path d="M0 0 C2.76223278 2.76223278 2.57856291 5.20706617 3 9 C2.34 9 1.68 9 1 9 C-0.4783226 6.04335481 -0.06032783 3.25770263 0 0 Z " fill="#000000" transform="translate(298,393)"/>
<path d="M0 0 C2.63249349 2.45699392 4.78137264 4.56568654 6 8 C5.67 8.99 5.34 9.98 5 11 C4.16151196 9.54462432 3.32936066 8.08559627 2.5 6.625 C1.80390625 5.40683594 1.80390625 5.40683594 1.09375 4.1640625 C0 2 0 2 0 0 Z " fill="#000000" transform="translate(394,393)"/>
<path d="M0 0 C0.33 0 0.66 0 1 0 C1.33 3.3 1.66 6.6 2 10 C1.34 10 0.68 10 0 10 C-1.49106457 7.01787087 -1.11941467 4.28390342 -1 1 C-0.67 0.67 -0.34 0.34 0 0 Z " fill="#000000" transform="translate(281,396)"/>
<path d="M0 0 C1.85776765 3.13498292 2.20140476 5.37471432 2 9 C1.34 9 0.68 9 0 9 C-0.87890625 2.84765625 -0.87890625 2.84765625 -1 1 C-0.67 0.67 -0.34 0.34 0 0 Z " fill="#000000" transform="translate(422,397)"/>
<path d="M0 0 C0.33 0 0.66 0 1 0 C1.37211538 7.56634615 1.37211538 7.56634615 -0.51171875 9.76171875 C-1.00285156 10.17035156 -1.49398438 10.57898438 -2 11 C-1.85957123 9.35369672 -1.71250671 7.70795821 -1.5625 6.0625 C-1.48128906 5.14597656 -1.40007812 4.22945313 -1.31640625 3.28515625 C-1 1 -1 1 0 0 Z " fill="#000000" transform="translate(437,397)"/>
<path d="M0 0 C0.66 0.33 1.32 0.66 2 1 C1.67 3.31 1.34 5.62 1 8 C0.34 7.67 -0.32 7.34 -1 7 C-0.67 4.69 -0.34 2.38 0 0 Z " fill="#000000" transform="translate(324,401)"/>
<path d="M0 0 C0.66 0.33 1.32 0.66 2 1 C2 3.64 2 6.28 2 9 C1.01 9.495 1.01 9.495 0 10 C-1.231394 6.30581799 -0.64432764 3.7943739 0 0 Z " fill="#000000" transform="translate(344,401)"/>
<path d="M0 0 C2.1519437 3.22791555 2.20086443 4.28400809 2 8 C1.34 8 0.68 8 0 8 C-0.38063221 5.6739143 -0.71269945 3.33944736 -1 1 C-0.67 0.67 -0.34 0.34 0 0 Z " fill="#000000" transform="translate(334,402)"/>
<path d="M0 0 C0.66 0 1.32 0 2 0 C3.1577506 3.47325181 3.06866652 6.36067448 3 10 C2.34 10 1.68 10 1 10 C0.67 6.7 0.34 3.4 0 0 Z " fill="#000000" transform="translate(413,403)"/>
<path d="M0 0 C0.66 0 1.32 0 2 0 C2 2.64 2 5.28 2 8 C1.34 8 0.68 8 0 8 C0 5.36 0 2.72 0 0 Z " fill="#000000" transform="translate(358,404)"/>
<path d="M0 0 C0.66 0 1.32 0 2 0 C1.67 2.31 1.34 4.62 1 7 C0.34 7 -0.32 7 -1 7 C-0.67 4.69 -0.34 2.38 0 0 Z " fill="#000000" transform="translate(430,404)"/>
<path d="M0 0 C0.99 0.495 0.99 0.495 2 1 C2.6328125 3.06640625 2.6328125 3.06640625 3.125 5.5625 C3.29257812 6.38878906 3.46015625 7.21507812 3.6328125 8.06640625 C3.75398438 8.70449219 3.87515625 9.34257812 4 10 C3.01 10 2.02 10 1 10 C0.67 6.7 0.34 3.4 0 0 Z " fill="#000000" transform="translate(393,405)"/>
<path d="M0 0 C0.99 0.495 0.99 0.495 2 1 C2.59355614 3.64860427 2.74209269 6.29197322 3 9 C2.34 9 1.68 9 1 9 C-0.4783226 6.04335481 -0.06032783 3.25770263 0 0 Z " fill="#000000" transform="translate(366,408)"/>
<path d="M0 0 C0.33 0 0.66 0 1 0 C1 2.97 1 5.94 1 9 C0.34 9 -0.32 9 -1 9 C-1.09765625 2.84765625 -1.09765625 2.84765625 -1 1 C-0.67 0.67 -0.34 0.34 0 0 Z " fill="#000000" transform="translate(382,410)"/>
<path d="M0 0 C0.66 0 1.32 0 2 0 C2.66 2.64 3.32 5.28 4 8 C2.68 7.34 1.36 6.68 0 6 C0 4.02 0 2.04 0 0 Z " fill="#000000" transform="translate(304,411)"/>
<path d="M0 0 C0.99 0.495 0.99 0.495 2 1 C2.59355614 3.64860427 2.74209269 6.29197322 3 9 C2.34 9 1.68 9 1 9 C0.67 6.03 0.34 3.06 0 0 Z " fill="#000000" transform="translate(351,416)"/>
<path d="M0 0 C0.33 0 0.66 0 1 0 C1 5.94 1 11.88 1 18 C-4.61 18 -10.22 18 -16 18 C-14.68 17.01 -13.36 16.02 -12 15 C-6.24675662 10.56146262 -2.83436367 6.73161372 0 0 Z " fill="#000000" transform="translate(630,613)"/>
<path d="M0 0 C4 5 4 5 5.421875 6.87890625 C9.08101219 11.51740075 12.5809855 13.66421789 18 16 C18 16.33 18 16.66 18 17 C12.06 17 6.12 17 0 17 C0 11.39 0 5.78 0 0 Z " fill="#000000" transform="translate(0,614)"/>
</svg>
