<svg width="178" height="82" viewBox="0 0 178 82" fill="none" xmlns="http://www.w3.org/2000/svg">
<g filter="url(#filter0_d_5_2)">
<mask id="path-1-inside-1_5_2" fill="white">
<path d="M7.54375 59.648V37.952C7.54375 36.544 7.24508 35.328 6.64775 34.304C6.05042 33.28 5.30375 32.768 4.40775 32.768V31.36C4.70642 31.3173 7.03175 30.016 11.3838 27.456C11.6824 27.5413 12.0451 27.6693 12.4718 27.84C12.8984 27.968 13.4531 28.3733 14.1358 29.056C14.8611 29.7387 15.2238 30.528 15.2238 31.424C15.4798 31.296 16.2051 30.8907 17.3998 30.208C20.5571 28.416 22.4984 27.52 23.2238 27.52C23.9918 27.52 24.8238 27.904 25.7198 28.672C26.6584 29.44 27.3624 30.3573 27.8318 31.424C27.9171 31.3813 28.7918 30.9333 30.4558 30.08C33.7838 28.3733 35.7891 27.52 36.4718 27.52C37.8371 27.52 39.1171 28.416 40.3118 30.208C41.5064 32 42.1038 33.6427 42.1038 35.136V54.528C42.1038 56.8747 43.1491 58.2613 45.2398 58.688V60.096L38.2638 64C37.3251 63.616 36.4504 62.9973 35.6398 62.144C34.8291 61.248 34.4238 60.416 34.4238 59.648V40.768C34.4238 37.9947 34.0611 36.16 33.3358 35.264C32.6104 34.3253 31.6718 33.856 30.5198 33.856L28.6638 34.24V54.528C28.6638 56.8747 29.7091 58.2613 31.7998 58.688V60.096L24.8238 64C23.8851 63.616 23.0104 62.9973 22.1998 62.144C21.3891 61.248 20.9838 60.416 20.9838 59.648V41.088C20.9838 36.1813 19.8104 33.728 17.4638 33.728L15.2238 34.112V54.528C15.2238 57.1307 16.0984 58.6027 17.8478 58.944V60.352L11.3838 64C10.4451 63.616 9.57042 62.9973 8.75975 62.144C7.94908 61.248 7.54375 60.416 7.54375 59.648ZM56.1613 31.872V54.528C56.1613 57.1307 57.0359 58.6027 58.7853 58.944V60.352L52.3213 64C51.3826 63.616 50.5079 62.9973 49.6973 62.144C48.8866 61.248 48.4813 60.416 48.4813 59.648V36.992C48.4813 34.3893 47.6066 32.9173 45.8573 32.576V31.168L52.3213 27.52C53.2599 27.904 54.1346 28.544 54.9453 29.44C55.7559 30.2933 56.1613 31.104 56.1613 31.872ZM47.5213 19.52V15.616C47.5213 15.488 48.3959 15.104 50.1453 14.464C51.9373 13.7813 52.9613 13.44 53.2173 13.44C53.5159 13.44 53.9213 13.8027 54.4333 14.528C54.9879 15.2533 55.2653 16 55.2653 16.768V21.44C55.2653 21.568 54.4119 21.9733 52.7053 22.656C50.9986 23.296 49.9533 23.616 49.5693 23.616C49.1853 23.616 48.7373 23.2533 48.2253 22.528C47.7559 21.76 47.5213 20.7573 47.5213 19.52ZM59.4078 31.36L66.4478 27.52C66.7464 27.6053 67.0878 27.7333 67.4718 27.904C67.8984 28.032 68.4531 28.4373 69.1358 29.12C69.8611 29.8027 70.2238 30.5707 70.2238 31.424C70.4371 31.3387 71.4398 30.6773 73.2318 29.44C75.0664 28.16 76.2398 27.52 76.7518 27.52C78.1171 27.52 79.3971 28.416 80.5918 30.208C81.7864 32 82.3838 33.6427 82.3838 35.136V38.272L75.7917 41.984L74.7038 41.088C74.7038 37.504 74.3624 35.456 73.6798 34.944C72.9118 34.3893 71.7598 34.112 70.2238 34.112V54.528C70.2238 57.1307 71.0984 58.6027 72.8478 58.944V60.352L66.3838 64C65.4451 63.616 64.5704 62.9973 63.7598 62.144C62.9491 61.248 62.5438 60.416 62.5438 59.648V38.4C62.5438 36.5227 62.2024 35.1147 61.5198 34.176C60.8798 33.2373 60.1758 32.768 59.4078 32.768V31.36ZM102.884 35.968V54.08C102.884 55.6587 103.14 56.768 103.652 57.408C104.164 58.0053 104.953 58.432 106.02 58.688V60.096L99.0438 64C98.1051 63.616 97.2304 62.9973 96.4198 62.144C95.6091 61.248 95.2038 60.4373 95.2038 59.712L87.2038 64C87.0758 63.9147 86.8838 63.808 86.6278 63.68C86.3718 63.5093 85.9238 63.1893 85.2838 62.72C84.6864 62.208 84.1531 61.6747 83.6838 61.12C82.4038 59.712 81.7638 58.112 81.7638 56.32V45.824C81.7638 45.1413 82.8731 44.2667 85.0918 43.2C87.3104 42.1333 89.5291 41.2587 91.7478 40.576L95.1398 39.488C95.1398 37.056 94.4998 35.3707 93.2198 34.432C91.9398 33.4507 89.4651 32.96 85.7958 32.96V31.04C92.4091 28.6933 96.1211 27.52 96.9318 27.52C98.3398 27.52 99.6838 28.4373 100.964 30.272C102.244 32.1067 102.884 34.0053 102.884 35.968ZM89.4438 54.016C89.4438 55.1253 89.7638 56.0427 90.4038 56.768C91.0864 57.4507 91.8331 57.792 92.6438 57.792C93.4544 57.792 94.3078 57.472 95.2038 56.832V42.368C94.1371 42.752 93.3264 43.072 92.7718 43.328C92.2598 43.584 91.7051 43.9893 91.1078 44.544C89.9984 45.568 89.4438 47.3387 89.4438 49.856V54.016ZM112.238 49.984C111.171 49.984 110.254 49.1733 109.486 47.552C108.718 45.9307 108.334 43.9467 108.334 41.6V34.688C108.334 33.8773 110.574 32.4907 115.054 30.528C119.534 28.5227 122.115 27.52 122.798 27.52C123.182 27.52 123.523 27.7547 123.822 28.224C124.12 28.6507 124.355 29.0133 124.526 29.312C124.696 29.568 124.952 30.0373 125.294 30.72C125.678 31.36 125.998 31.8933 126.254 32.32C126.808 33.344 127.512 33.856 128.366 33.856V35.136C127.683 35.4347 126.787 35.8827 125.678 36.48C122.947 37.9733 121.475 38.72 121.262 38.72C120.622 38.72 119.918 37.6747 119.15 35.584C118.424 33.4933 117.763 32.448 117.166 32.448C116.398 32.448 116.014 33.088 116.014 34.368V42.24C116.014 43.9467 116.398 44.8 117.166 44.8C117.336 44.8 118.659 44.2453 121.134 43.136C123.608 42.0267 125.102 41.472 125.614 41.472C126.638 41.472 127.534 42.304 128.302 43.968C129.112 45.5893 129.518 47.68 129.518 50.24V57.472C129.518 58.2827 127.064 59.6907 122.158 61.696C117.294 63.6587 114.499 64.64 113.774 64.64C113.475 64.64 113.176 64.384 112.878 63.872C112.622 63.3173 112.238 62.4853 111.726 61.376C111.256 60.2667 110.787 59.328 110.318 58.56C109.763 57.536 109.059 57.024 108.206 57.024V55.744C108.888 55.4453 109.806 54.9973 110.958 54.4C113.646 52.9067 115.096 52.16 115.31 52.16C115.95 52.16 116.739 53.4187 117.678 55.936C118.659 58.4533 119.448 59.712 120.046 59.712C120.472 59.712 120.878 59.5413 121.262 59.2C121.646 58.8587 121.838 58.3893 121.838 57.792V49.792C121.838 47.872 121.304 46.912 120.238 46.912C119.896 46.912 118.552 47.424 116.206 48.448C113.859 49.472 112.536 49.984 112.238 49.984ZM135.231 54.656V33.408C135.231 33.1093 137.663 32.064 142.527 30.272C147.391 28.4373 150.186 27.52 150.911 27.52C151.637 27.52 152.725 28.3947 154.175 30.144C155.669 31.8933 156.415 33.472 156.415 34.88V58.048C156.415 58.3893 154.069 59.4773 149.375 61.312C144.725 63.104 141.866 64 140.799 64C139.775 64 138.581 63.0827 137.215 61.248C135.893 59.4133 135.231 57.216 135.231 54.656ZM146.175 58.112C146.986 58.112 147.818 57.7707 148.671 57.088V38.208C148.671 35.0507 147.583 33.472 145.407 33.472C144.554 33.472 143.722 33.792 142.911 34.432V53.376C142.911 56.5333 143.999 58.112 146.175 58.112ZM170.474 19.136V54.528C170.474 57.1307 171.348 58.6027 173.098 58.944V60.352L166.634 64C165.695 63.616 164.82 62.9973 164.01 62.144C163.199 61.248 162.794 60.416 162.794 59.648V24.256C162.794 21.6533 161.919 20.1813 160.17 19.84V18.432L166.634 14.784C167.572 15.168 168.447 15.808 169.258 16.704C170.068 17.5573 170.474 18.368 170.474 19.136Z"/>
</mask>
<path d="M7.54375 59.648V37.952C7.54375 36.544 7.24508 35.328 6.64775 34.304C6.05042 33.28 5.30375 32.768 4.40775 32.768V31.36C4.70642 31.3173 7.03175 30.016 11.3838 27.456C11.6824 27.5413 12.0451 27.6693 12.4718 27.84C12.8984 27.968 13.4531 28.3733 14.1358 29.056C14.8611 29.7387 15.2238 30.528 15.2238 31.424C15.4798 31.296 16.2051 30.8907 17.3998 30.208C20.5571 28.416 22.4984 27.52 23.2238 27.52C23.9918 27.52 24.8238 27.904 25.7198 28.672C26.6584 29.44 27.3624 30.3573 27.8318 31.424C27.9171 31.3813 28.7918 30.9333 30.4558 30.08C33.7838 28.3733 35.7891 27.52 36.4718 27.52C37.8371 27.52 39.1171 28.416 40.3118 30.208C41.5064 32 42.1038 33.6427 42.1038 35.136V54.528C42.1038 56.8747 43.1491 58.2613 45.2398 58.688V60.096L38.2638 64C37.3251 63.616 36.4504 62.9973 35.6398 62.144C34.8291 61.248 34.4238 60.416 34.4238 59.648V40.768C34.4238 37.9947 34.0611 36.16 33.3358 35.264C32.6104 34.3253 31.6718 33.856 30.5198 33.856L28.6638 34.24V54.528C28.6638 56.8747 29.7091 58.2613 31.7998 58.688V60.096L24.8238 64C23.8851 63.616 23.0104 62.9973 22.1998 62.144C21.3891 61.248 20.9838 60.416 20.9838 59.648V41.088C20.9838 36.1813 19.8104 33.728 17.4638 33.728L15.2238 34.112V54.528C15.2238 57.1307 16.0984 58.6027 17.8478 58.944V60.352L11.3838 64C10.4451 63.616 9.57042 62.9973 8.75975 62.144C7.94908 61.248 7.54375 60.416 7.54375 59.648ZM56.1613 31.872V54.528C56.1613 57.1307 57.0359 58.6027 58.7853 58.944V60.352L52.3213 64C51.3826 63.616 50.5079 62.9973 49.6973 62.144C48.8866 61.248 48.4813 60.416 48.4813 59.648V36.992C48.4813 34.3893 47.6066 32.9173 45.8573 32.576V31.168L52.3213 27.52C53.2599 27.904 54.1346 28.544 54.9453 29.44C55.7559 30.2933 56.1613 31.104 56.1613 31.872ZM47.5213 19.52V15.616C47.5213 15.488 48.3959 15.104 50.1453 14.464C51.9373 13.7813 52.9613 13.44 53.2173 13.44C53.5159 13.44 53.9213 13.8027 54.4333 14.528C54.9879 15.2533 55.2653 16 55.2653 16.768V21.44C55.2653 21.568 54.4119 21.9733 52.7053 22.656C50.9986 23.296 49.9533 23.616 49.5693 23.616C49.1853 23.616 48.7373 23.2533 48.2253 22.528C47.7559 21.76 47.5213 20.7573 47.5213 19.52ZM59.4078 31.36L66.4478 27.52C66.7464 27.6053 67.0878 27.7333 67.4718 27.904C67.8984 28.032 68.4531 28.4373 69.1358 29.12C69.8611 29.8027 70.2238 30.5707 70.2238 31.424C70.4371 31.3387 71.4398 30.6773 73.2318 29.44C75.0664 28.16 76.2398 27.52 76.7518 27.52C78.1171 27.52 79.3971 28.416 80.5918 30.208C81.7864 32 82.3838 33.6427 82.3838 35.136V38.272L75.7917 41.984L74.7038 41.088C74.7038 37.504 74.3624 35.456 73.6798 34.944C72.9118 34.3893 71.7598 34.112 70.2238 34.112V54.528C70.2238 57.1307 71.0984 58.6027 72.8478 58.944V60.352L66.3838 64C65.4451 63.616 64.5704 62.9973 63.7598 62.144C62.9491 61.248 62.5438 60.416 62.5438 59.648V38.4C62.5438 36.5227 62.2024 35.1147 61.5198 34.176C60.8798 33.2373 60.1758 32.768 59.4078 32.768V31.36ZM102.884 35.968V54.08C102.884 55.6587 103.14 56.768 103.652 57.408C104.164 58.0053 104.953 58.432 106.02 58.688V60.096L99.0438 64C98.1051 63.616 97.2304 62.9973 96.4198 62.144C95.6091 61.248 95.2038 60.4373 95.2038 59.712L87.2038 64C87.0758 63.9147 86.8838 63.808 86.6278 63.68C86.3718 63.5093 85.9238 63.1893 85.2838 62.72C84.6864 62.208 84.1531 61.6747 83.6838 61.12C82.4038 59.712 81.7638 58.112 81.7638 56.32V45.824C81.7638 45.1413 82.8731 44.2667 85.0918 43.2C87.3104 42.1333 89.5291 41.2587 91.7478 40.576L95.1398 39.488C95.1398 37.056 94.4998 35.3707 93.2198 34.432C91.9398 33.4507 89.4651 32.96 85.7958 32.96V31.04C92.4091 28.6933 96.1211 27.52 96.9318 27.52C98.3398 27.52 99.6838 28.4373 100.964 30.272C102.244 32.1067 102.884 34.0053 102.884 35.968ZM89.4438 54.016C89.4438 55.1253 89.7638 56.0427 90.4038 56.768C91.0864 57.4507 91.8331 57.792 92.6438 57.792C93.4544 57.792 94.3078 57.472 95.2038 56.832V42.368C94.1371 42.752 93.3264 43.072 92.7718 43.328C92.2598 43.584 91.7051 43.9893 91.1078 44.544C89.9984 45.568 89.4438 47.3387 89.4438 49.856V54.016ZM112.238 49.984C111.171 49.984 110.254 49.1733 109.486 47.552C108.718 45.9307 108.334 43.9467 108.334 41.6V34.688C108.334 33.8773 110.574 32.4907 115.054 30.528C119.534 28.5227 122.115 27.52 122.798 27.52C123.182 27.52 123.523 27.7547 123.822 28.224C124.12 28.6507 124.355 29.0133 124.526 29.312C124.696 29.568 124.952 30.0373 125.294 30.72C125.678 31.36 125.998 31.8933 126.254 32.32C126.808 33.344 127.512 33.856 128.366 33.856V35.136C127.683 35.4347 126.787 35.8827 125.678 36.48C122.947 37.9733 121.475 38.72 121.262 38.72C120.622 38.72 119.918 37.6747 119.15 35.584C118.424 33.4933 117.763 32.448 117.166 32.448C116.398 32.448 116.014 33.088 116.014 34.368V42.24C116.014 43.9467 116.398 44.8 117.166 44.8C117.336 44.8 118.659 44.2453 121.134 43.136C123.608 42.0267 125.102 41.472 125.614 41.472C126.638 41.472 127.534 42.304 128.302 43.968C129.112 45.5893 129.518 47.68 129.518 50.24V57.472C129.518 58.2827 127.064 59.6907 122.158 61.696C117.294 63.6587 114.499 64.64 113.774 64.64C113.475 64.64 113.176 64.384 112.878 63.872C112.622 63.3173 112.238 62.4853 111.726 61.376C111.256 60.2667 110.787 59.328 110.318 58.56C109.763 57.536 109.059 57.024 108.206 57.024V55.744C108.888 55.4453 109.806 54.9973 110.958 54.4C113.646 52.9067 115.096 52.16 115.31 52.16C115.95 52.16 116.739 53.4187 117.678 55.936C118.659 58.4533 119.448 59.712 120.046 59.712C120.472 59.712 120.878 59.5413 121.262 59.2C121.646 58.8587 121.838 58.3893 121.838 57.792V49.792C121.838 47.872 121.304 46.912 120.238 46.912C119.896 46.912 118.552 47.424 116.206 48.448C113.859 49.472 112.536 49.984 112.238 49.984ZM135.231 54.656V33.408C135.231 33.1093 137.663 32.064 142.527 30.272C147.391 28.4373 150.186 27.52 150.911 27.52C151.637 27.52 152.725 28.3947 154.175 30.144C155.669 31.8933 156.415 33.472 156.415 34.88V58.048C156.415 58.3893 154.069 59.4773 149.375 61.312C144.725 63.104 141.866 64 140.799 64C139.775 64 138.581 63.0827 137.215 61.248C135.893 59.4133 135.231 57.216 135.231 54.656ZM146.175 58.112C146.986 58.112 147.818 57.7707 148.671 57.088V38.208C148.671 35.0507 147.583 33.472 145.407 33.472C144.554 33.472 143.722 33.792 142.911 34.432V53.376C142.911 56.5333 143.999 58.112 146.175 58.112ZM170.474 19.136V54.528C170.474 57.1307 171.348 58.6027 173.098 58.944V60.352L166.634 64C165.695 63.616 164.82 62.9973 164.01 62.144C163.199 61.248 162.794 60.416 162.794 59.648V24.256C162.794 21.6533 161.919 20.1813 160.17 19.84V18.432L166.634 14.784C167.572 15.168 168.447 15.808 169.258 16.704C170.068 17.5573 170.474 18.368 170.474 19.136Z" fill="url(#paint0_linear_5_2)" shape-rendering="crispEdges"/>
<path d="M6.64775 34.304L5.78397 34.8079L5.78397 34.8079L6.64775 34.304ZM4.40775 32.768H3.40775V33.768H4.40775V32.768ZM4.40775 31.36L4.26633 30.37L3.40775 30.4927V31.36H4.40775ZM11.3838 27.456L11.6585 26.4945L11.2463 26.3767L10.8767 26.5941L11.3838 27.456ZM12.4718 27.84L12.1004 28.7685L12.1417 28.785L12.1844 28.7978L12.4718 27.84ZM14.1358 29.056L13.4286 29.7631L13.4394 29.7738L13.4504 29.7842L14.1358 29.056ZM15.2238 31.424H14.2238V33.042L15.671 32.3184L15.2238 31.424ZM17.3998 30.208L16.9061 29.3383L16.9036 29.3398L17.3998 30.208ZM25.7198 28.672L25.069 29.4313L25.0777 29.4387L25.0865 29.446L25.7198 28.672ZM27.8318 31.424L26.9164 31.8267L27.3395 32.7882L28.279 32.3184L27.8318 31.424ZM30.4558 30.08L30.9121 30.9698L30.9121 30.9698L30.4558 30.08ZM40.3118 30.208L39.4797 30.7627L39.4797 30.7627L40.3118 30.208ZM45.2398 58.688H46.2398V57.8715L45.4397 57.7082L45.2398 58.688ZM45.2398 60.096L45.7281 60.9686L46.2398 60.6823V60.096H45.2398ZM38.2638 64L37.8851 64.9255L38.3314 65.1081L38.7521 64.8726L38.2638 64ZM35.6398 62.144L34.8982 62.8149L34.9064 62.8239L34.9148 62.8327L35.6398 62.144ZM33.3358 35.264L32.5445 35.8754L32.5514 35.8844L32.5585 35.8932L33.3358 35.264ZM30.5198 33.856V32.856H30.4174L30.3171 32.8767L30.5198 33.856ZM28.6638 34.24L28.4611 33.2607L27.6638 33.4257V34.24H28.6638ZM31.7998 58.688H32.7998V57.8715L31.9997 57.7082L31.7998 58.688ZM31.7998 60.096L32.2881 60.9686L32.7998 60.6823V60.096H31.7998ZM24.8238 64L24.4451 64.9255L24.8914 65.1081L25.3121 64.8726L24.8238 64ZM22.1998 62.144L21.4582 62.8149L21.4664 62.8239L21.4748 62.8327L22.1998 62.144ZM17.4638 33.728V32.728H17.3787L17.2948 32.7424L17.4638 33.728ZM15.2238 34.112L15.0548 33.1264L14.2238 33.2688V34.112H15.2238ZM17.8478 58.944H18.8478V58.1203L18.0393 57.9625L17.8478 58.944ZM17.8478 60.352L18.3392 61.2229L18.8478 60.9359V60.352H17.8478ZM11.3838 64L11.0051 64.9255L11.4534 65.1089L11.8752 64.8709L11.3838 64ZM8.75975 62.144L8.01821 62.8149L8.02637 62.8239L8.03475 62.8327L8.75975 62.144ZM8.54375 59.648V37.952H6.54375V59.648H8.54375ZM8.54375 37.952C8.54375 36.4003 8.21352 35.0035 7.51153 33.8001L5.78397 34.8079C6.27665 35.6525 6.54375 36.6877 6.54375 37.952H8.54375ZM7.51153 33.8001C6.80096 32.582 5.77335 31.768 4.40775 31.768V33.768C4.83415 33.768 5.29987 33.978 5.78397 34.8079L7.51153 33.8001ZM5.40775 32.768V31.36H3.40775V32.768H5.40775ZM4.54917 32.3499C4.74588 32.3218 4.93935 32.235 5.02033 32.1991C5.14546 32.1435 5.29647 32.0697 5.46763 31.982C5.81195 31.8057 6.27911 31.552 6.86411 31.2246C8.03631 30.5686 9.713 29.599 11.8908 28.3179L10.8767 26.5941C8.7025 27.873 7.04053 28.834 5.88739 29.4794C5.30972 29.8026 4.86755 30.0423 4.55587 30.202C4.39903 30.2823 4.28537 30.3371 4.20917 30.3709C4.08881 30.4243 4.14429 30.3875 4.26633 30.37L4.54917 32.3499ZM11.109 28.4175C11.3635 28.4902 11.6919 28.6051 12.1004 28.7685L12.8431 26.9115C12.3983 26.7336 12.0014 26.5924 11.6585 26.4945L11.109 28.4175ZM12.1844 28.7978C12.3531 28.8484 12.7565 29.091 13.4286 29.7631L14.8429 28.3489C14.1497 27.6557 13.4437 27.0876 12.7591 26.8822L12.1844 28.7978ZM13.4504 29.7842C13.9997 30.3012 14.2238 30.836 14.2238 31.424H16.2238C16.2238 30.22 15.7224 29.1761 14.8211 28.3278L13.4504 29.7842ZM15.671 32.3184C15.9581 32.1749 16.7131 31.7521 17.8959 31.0762L16.9036 29.3398C15.697 30.0292 15.0014 30.4171 14.7765 30.5296L15.671 32.3184ZM17.8934 31.0777C19.4619 30.1874 20.709 29.531 21.6428 29.1C22.1103 28.8842 22.4838 28.7322 22.7703 28.6359C22.9129 28.588 23.0241 28.5573 23.1074 28.5391C23.1946 28.5202 23.2287 28.52 23.2238 28.52V26.52C22.8749 26.52 22.4917 26.6196 22.1332 26.7401C21.753 26.8678 21.3078 27.0518 20.8047 27.284C19.7972 27.749 18.4949 28.4366 16.9061 29.3383L17.8934 31.0777ZM23.2238 28.52C23.6538 28.52 24.2611 28.7388 25.069 29.4313L26.3705 27.9127C25.3864 27.0692 24.3297 26.52 23.2238 26.52V28.52ZM25.0865 29.446C25.9083 30.1184 26.5132 30.9102 26.9164 31.8267L28.7471 31.0213C28.2117 29.8044 27.4085 28.7616 26.353 27.898L25.0865 29.446ZM28.279 32.3184C28.3704 32.2727 29.253 31.8206 30.9121 30.9698L29.9994 29.1902C28.3305 30.046 27.4638 30.4899 27.3845 30.5296L28.279 32.3184ZM30.9121 30.9698C32.5675 30.1209 33.8766 29.4932 34.8473 29.0802C35.3334 28.8733 35.7201 28.7265 36.0143 28.6331C36.1611 28.5865 36.2749 28.5564 36.3598 28.5385C36.4496 28.5196 36.4814 28.52 36.4718 28.52V26.52C36.1385 26.52 35.7619 26.6149 35.4092 26.7269C35.0314 26.8468 34.5808 27.02 34.0642 27.2398C33.0295 27.6801 31.672 28.3325 29.9994 29.1902L30.9121 30.9698ZM36.4718 28.52C37.3428 28.52 38.3595 29.0824 39.4797 30.7627L41.1438 29.6533C39.8747 27.7496 38.3314 26.52 36.4718 26.52V28.52ZM39.4797 30.7627C40.611 32.4596 41.1038 33.9095 41.1038 35.136H43.1038C43.1038 33.3759 42.4019 31.5404 41.1438 29.6533L39.4797 30.7627ZM41.1038 35.136V54.528H43.1038V35.136H41.1038ZM41.1038 54.528C41.1038 55.8431 41.3967 57.0113 42.0892 57.93C42.7903 58.8599 43.8125 59.4173 45.0398 59.6678L45.4397 57.7082C44.5763 57.532 44.0306 57.1827 43.6863 56.726C43.3335 56.258 43.1038 55.5596 43.1038 54.528H41.1038ZM44.2398 58.688V60.096H46.2398V58.688H44.2398ZM44.7514 59.2234L37.7754 63.1274L38.7521 64.8726L45.7281 60.9686L44.7514 59.2234ZM38.6424 63.0745C37.854 62.7519 37.0935 62.2224 36.3648 61.4553L34.9148 62.8327C35.8073 63.7723 36.7962 64.4801 37.8851 64.9255L38.6424 63.0745ZM36.3813 61.4731C35.6459 60.6603 35.4238 60.0595 35.4238 59.648H33.4238C33.4238 60.7725 34.0123 61.8357 34.8982 62.8149L36.3813 61.4731ZM35.4238 59.648V40.768H33.4238V59.648H35.4238ZM35.4238 40.768C35.4238 39.3442 35.3312 38.1219 35.1328 37.1181C34.9374 36.1296 34.6226 35.2644 34.113 34.6348L32.5585 35.8932C32.7742 36.1596 33.0035 36.6597 33.1707 37.5059C33.335 38.3368 33.4238 39.4185 33.4238 40.768H35.4238ZM34.127 34.6526C33.2189 33.4773 31.9921 32.856 30.5198 32.856V34.856C31.3514 34.856 32.0019 35.1733 32.5445 35.8754L34.127 34.6526ZM30.3171 32.8767L28.4611 33.2607L28.8664 35.2193L30.7224 34.8353L30.3171 32.8767ZM27.6638 34.24V54.528H29.6638V34.24H27.6638ZM27.6638 54.528C27.6638 55.8431 27.9567 57.0113 28.6492 57.93C29.3503 58.8599 30.3725 59.4173 31.5998 59.6678L31.9997 57.7082C31.1363 57.532 30.5906 57.1827 30.2463 56.726C29.8935 56.258 29.6638 55.5596 29.6638 54.528H27.6638ZM30.7998 58.688V60.096H32.7998V58.688H30.7998ZM31.3114 59.2234L24.3354 63.1274L25.3121 64.8726L32.2881 60.9686L31.3114 59.2234ZM25.2024 63.0745C24.414 62.7519 23.6535 62.2224 22.9248 61.4553L21.4748 62.8327C22.3673 63.7723 23.3562 64.4801 24.4451 64.9255L25.2024 63.0745ZM22.9413 61.4731C22.2059 60.6603 21.9838 60.0595 21.9838 59.648H19.9838C19.9838 60.7725 20.5723 61.8357 21.4582 62.8149L22.9413 61.4731ZM21.9838 59.648V41.088H19.9838V59.648H21.9838ZM21.9838 41.088C21.9838 38.5868 21.6898 36.5665 21.0059 35.1365C20.6575 34.4082 20.1906 33.7963 19.5755 33.3676C18.952 32.933 18.2348 32.728 17.4638 32.728V34.728C17.8661 34.728 18.1755 34.8296 18.432 35.0084C18.6969 35.1931 18.9633 35.5011 19.2016 35.9995C19.691 37.0228 19.9838 38.6825 19.9838 41.088H21.9838ZM17.2948 32.7424L15.0548 33.1264L15.3927 35.0976L17.6327 34.7136L17.2948 32.7424ZM14.2238 34.112V54.528H16.2238V34.112H14.2238ZM14.2238 54.528C14.2238 55.9228 14.455 57.1439 15.0201 58.0948C15.6096 59.0869 16.515 59.7028 17.6562 59.9255L18.0393 57.9625C17.4312 57.8439 17.0246 57.5531 16.7394 57.0732C16.4298 56.5521 16.2238 55.7359 16.2238 54.528H14.2238ZM16.8478 58.944V60.352H18.8478V58.944H16.8478ZM17.3563 59.4811L10.8923 63.1291L11.8752 64.8709L18.3392 61.2229L17.3563 59.4811ZM11.7624 63.0745C10.974 62.7519 10.2135 62.2224 9.48475 61.4553L8.03475 62.8327C8.9273 63.7723 9.91617 64.4801 11.0051 64.9255L11.7624 63.0745ZM9.50129 61.4731C8.76588 60.6603 8.54375 60.0595 8.54375 59.648H6.54375C6.54375 60.7725 7.13229 61.8357 8.01821 62.8149L9.50129 61.4731ZM58.7853 58.944H59.7853V58.1203L58.9768 57.9625L58.7853 58.944ZM58.7853 60.352L59.2767 61.2229L59.7853 60.9359V60.352H58.7853ZM52.3213 64L51.9426 64.9255L52.3909 65.1089L52.8127 64.8709L52.3213 64ZM49.6973 62.144L48.9557 62.8149L48.9639 62.8239L48.9723 62.8327L49.6973 62.144ZM45.8573 32.576H44.8573V33.3997L45.6657 33.5575L45.8573 32.576ZM45.8573 31.168L45.3658 30.2971L44.8573 30.5841V31.168H45.8573ZM52.3213 27.52L52.6999 26.5944L52.2516 26.4111L51.8298 26.6491L52.3213 27.52ZM54.9453 29.44L54.2037 30.1109L54.2119 30.1199L54.2203 30.1287L54.9453 29.44ZM50.1453 14.464L50.4889 15.4032L50.5012 15.3985L50.1453 14.464ZM54.4333 14.528L53.6163 15.1047L53.6273 15.1203L53.6389 15.1354L54.4333 14.528ZM52.7053 22.656L53.0564 23.5923L53.0666 23.5885L53.0766 23.5845L52.7053 22.656ZM48.2253 22.528L47.372 23.0494L47.3892 23.0777L47.4083 23.1047L48.2253 22.528ZM55.1613 31.872V54.528H57.1613V31.872H55.1613ZM55.1613 54.528C55.1613 55.9228 55.3925 57.1439 55.9576 58.0948C56.5471 59.0869 57.4525 59.7028 58.5937 59.9255L58.9768 57.9625C58.3687 57.8439 57.9621 57.5531 57.6769 57.0732C57.3673 56.5521 57.1613 55.7359 57.1613 54.528H55.1613ZM57.7853 58.944V60.352H59.7853V58.944H57.7853ZM58.2938 59.4811L51.8298 63.1291L52.8127 64.8709L59.2767 61.2229L58.2938 59.4811ZM52.6999 63.0745C51.9115 62.7519 51.151 62.2224 50.4222 61.4553L48.9723 62.8327C49.8648 63.7723 50.8537 64.4801 51.9426 64.9255L52.6999 63.0745ZM50.4388 61.4731C49.7034 60.6603 49.4813 60.0595 49.4813 59.648H47.4813C47.4813 60.7725 48.0698 61.8357 48.9557 62.8149L50.4388 61.4731ZM49.4813 59.648V36.992H47.4813V59.648H49.4813ZM49.4813 36.992C49.4813 35.5972 49.25 34.3761 48.6849 33.4252C48.0954 32.4331 47.19 31.8172 46.0488 31.5945L45.6657 33.5575C46.2738 33.6761 46.6804 33.9669 46.9656 34.4468C47.2752 34.9679 47.4813 35.7841 47.4813 36.992H49.4813ZM46.8573 32.576V31.168H44.8573V32.576H46.8573ZM46.3487 32.0389L52.8127 28.3909L51.8298 26.6491L45.3658 30.2971L46.3487 32.0389ZM51.9426 28.4455C52.7188 28.7631 53.4744 29.3049 54.2037 30.1109L55.6868 28.7691C54.7947 27.7831 53.8011 27.0449 52.6999 26.5944L51.9426 28.4455ZM54.2203 30.1287C54.9458 30.8925 55.1613 31.4679 55.1613 31.872H57.1613C57.1613 30.7401 56.5661 29.6942 55.6702 28.7512L54.2203 30.1287ZM48.5213 19.52V15.616H46.5213V19.52H48.5213ZM48.5213 15.616C48.5213 15.8883 48.4092 16.077 48.3571 16.1532C48.2995 16.2375 48.2432 16.2889 48.2221 16.3074C48.179 16.3453 48.1568 16.3547 48.1904 16.335C48.249 16.3007 48.3709 16.2391 48.5792 16.1476C48.987 15.9686 49.6191 15.7213 50.4888 15.4031L49.8017 13.5249C48.922 13.8467 48.2422 14.1114 47.7753 14.3164C47.5463 14.4169 47.3401 14.5153 47.1801 14.609C47.1044 14.6533 47.0002 14.7187 46.9024 14.8046C46.854 14.8471 46.7772 14.9205 46.7059 15.0248C46.6402 15.121 46.5213 15.3277 46.5213 15.616H48.5213ZM50.5012 15.3985C51.3925 15.059 52.0813 14.8088 52.5735 14.6447C52.8205 14.5623 53.0069 14.5054 53.1389 14.4702C53.3067 14.4255 53.3009 14.44 53.2173 14.44V12.44C53.0056 12.44 52.7758 12.4972 52.6236 12.5378C52.4356 12.5879 52.206 12.659 51.941 12.7473C51.4092 12.9246 50.69 13.1864 49.7893 13.5295L50.5012 15.3985ZM53.2173 14.44C53.0893 14.44 53.0126 14.4018 53.0033 14.397C52.9937 14.392 53.0186 14.4037 53.0785 14.4572C53.2009 14.5668 53.3802 14.7702 53.6163 15.1047L55.2502 13.9513C54.9743 13.5605 54.695 13.2199 54.412 12.9668C54.1606 12.7418 53.7475 12.44 53.2173 12.44V14.44ZM53.6389 15.1354C54.0862 15.7204 54.2653 16.2589 54.2653 16.768H56.2653C56.2653 15.7411 55.8896 14.7862 55.2276 13.9205L53.6389 15.1354ZM54.2653 16.768V21.44H56.2653V16.768H54.2653ZM54.2653 21.44C54.2653 21.1764 54.3706 20.9927 54.419 20.9189C54.4731 20.8364 54.5261 20.7855 54.5462 20.7669C54.587 20.7291 54.6079 20.7196 54.5753 20.74C54.518 20.7758 54.3993 20.8403 54.1962 20.9367C53.7987 21.1255 53.1822 21.3882 52.3339 21.7275L53.0766 23.5845C53.9349 23.2412 54.5985 22.9598 55.0543 22.7433C55.2779 22.6371 55.4792 22.5336 55.6352 22.436C55.7092 22.3897 55.8101 22.3222 55.9043 22.2351C55.9511 22.1918 56.0241 22.1184 56.0915 22.0156C56.1533 21.9214 56.2653 21.7196 56.2653 21.44H54.2653ZM52.3541 21.7197C51.5092 22.0365 50.8429 22.2685 50.3485 22.4198C50.101 22.4956 49.9075 22.5477 49.7628 22.5802C49.6036 22.6158 49.5527 22.616 49.5693 22.616V24.616C49.9339 24.616 50.431 24.4862 50.934 24.3322C51.4849 24.1635 52.1946 23.9155 53.0564 23.5923L52.3541 21.7197ZM49.5693 22.616C49.6964 22.616 49.706 22.6732 49.5744 22.5668C49.4495 22.4656 49.2705 22.2747 49.0422 21.9513L47.4083 23.1047C47.692 23.5067 47.993 23.8597 48.3161 24.1212C48.6325 24.3774 49.0581 24.616 49.5693 24.616V22.616ZM49.0785 22.0065C48.7347 21.4438 48.5213 20.6396 48.5213 19.52H46.5213C46.5213 20.8751 46.7772 22.0762 47.372 23.0494L49.0785 22.0065ZM59.4078 31.36L58.9289 30.4821L58.4078 30.7664V31.36H59.4078ZM66.4478 27.52L66.7225 26.5585L66.3286 26.4459L65.9689 26.6421L66.4478 27.52ZM67.4718 27.904L67.0656 28.8178L67.1236 28.8436L67.1844 28.8618L67.4718 27.904ZM69.1358 29.12L68.4286 29.8271L68.4394 29.8378L68.4504 29.8482L69.1358 29.12ZM70.2238 31.424H69.2238V32.901L70.5951 32.3525L70.2238 31.424ZM73.2318 29.44L73.7999 30.2629L73.8039 30.2601L73.2318 29.44ZM80.5918 30.208L79.7597 30.7627L79.7597 30.7627L80.5918 30.208ZM82.3838 38.272L82.8744 39.1433L83.3838 38.8565V38.272H82.3838ZM75.7917 41.984L75.156 42.7559L75.6852 43.1917L76.2824 42.8553L75.7917 41.984ZM74.7038 41.088H73.7038V41.5599L74.068 41.8599L74.7038 41.088ZM73.6798 34.944L74.2798 34.144L74.2725 34.1386L74.2652 34.1333L73.6798 34.944ZM70.2238 34.112V33.112H69.2238V34.112H70.2238ZM72.8478 58.944H73.8478V58.1203L73.0393 57.9625L72.8478 58.944ZM72.8478 60.352L73.3392 61.2229L73.8478 60.9359V60.352H72.8478ZM66.3838 64L66.0051 64.9255L66.4534 65.1089L66.8752 64.8709L66.3838 64ZM63.7598 62.144L63.0182 62.8149L63.0264 62.8239L63.0348 62.8327L63.7598 62.144ZM61.5198 34.176L60.6935 34.7393L60.7021 34.7519L60.711 34.7642L61.5198 34.176ZM59.4078 32.768H58.4078V33.768H59.4078V32.768ZM59.8866 32.2379L66.9266 28.3979L65.9689 26.6421L58.9289 30.4821L59.8866 32.2379ZM66.173 28.4815C66.4143 28.5505 66.7105 28.66 67.0656 28.8178L67.8779 26.9902C67.465 26.8067 67.0785 26.6602 66.7225 26.5585L66.173 28.4815ZM67.1844 28.8618C67.3531 28.9124 67.7565 29.155 68.4286 29.8271L69.8429 28.4129C69.1497 27.7197 68.4437 27.1516 67.7591 26.9462L67.1844 28.8618ZM68.4504 29.8482C69.0115 30.3763 69.2238 30.8929 69.2238 31.424H71.2238C71.2238 30.2484 70.7106 29.229 69.8211 28.3918L68.4504 29.8482ZM70.5951 32.3525C70.7416 32.2939 70.9172 32.1888 71.055 32.1042C71.2203 32.0027 71.4318 31.8666 71.6863 31.6988C72.1965 31.3623 72.902 30.8829 73.7999 30.2629L72.6636 28.6171C71.7695 29.2344 71.0777 29.7044 70.5852 30.0292C70.3383 30.192 70.1472 30.3147 70.0085 30.3998C69.8423 30.5019 69.8126 30.5114 69.8524 30.4955L70.5951 32.3525ZM73.8039 30.2601C74.7083 29.6292 75.4263 29.1726 75.9666 28.8779C76.2371 28.7303 76.4456 28.633 76.5988 28.5749C76.7688 28.5103 76.8041 28.52 76.7518 28.52V26.52C76.4434 26.52 76.14 26.6097 75.8887 26.7051C75.6206 26.807 75.3251 26.9496 75.0089 27.1221C74.3759 27.4674 73.5899 27.9708 72.6596 28.6199L73.8039 30.2601ZM76.7518 28.52C77.6228 28.52 78.6395 29.0824 79.7597 30.7627L81.4238 29.6533C80.1547 27.7496 78.6114 26.52 76.7518 26.52V28.52ZM79.7597 30.7627C80.891 32.4596 81.3838 33.9095 81.3838 35.136H83.3838C83.3838 33.3759 82.6818 31.5404 81.4238 29.6533L79.7597 30.7627ZM81.3838 35.136V38.272H83.3838V35.136H81.3838ZM81.8931 37.4006L75.3011 41.1126L76.2824 42.8553L82.8744 39.1433L81.8931 37.4006ZM76.4275 41.2121L75.3395 40.3161L74.068 41.8599L75.156 42.7559L76.4275 41.2121ZM75.7038 41.088C75.7038 39.2743 75.6181 37.8031 75.4341 36.6996C75.3423 36.1485 75.2207 35.6558 75.0562 35.2446C74.898 34.8489 74.6615 34.4303 74.2798 34.144L73.0798 35.744C73.0393 35.7137 73.1015 35.7431 73.1993 35.9874C73.2908 36.2162 73.3825 36.5555 73.4614 37.0284C73.6188 37.9729 73.7038 39.3177 73.7038 41.088H75.7038ZM74.2652 34.1333C73.2503 33.4003 71.8502 33.112 70.2238 33.112V35.112C71.6693 35.112 72.5732 35.3784 73.0943 35.7547L74.2652 34.1333ZM69.2238 34.112V54.528H71.2238V34.112H69.2238ZM69.2238 54.528C69.2238 55.9228 69.455 57.1439 70.0201 58.0948C70.6096 59.0869 71.515 59.7028 72.6562 59.9255L73.0393 57.9625C72.4312 57.8439 72.0246 57.5531 71.7394 57.0732C71.4298 56.5521 71.2238 55.7359 71.2238 54.528H69.2238ZM71.8478 58.944V60.352H73.8478V58.944H71.8478ZM72.3563 59.4811L65.8923 63.1291L66.8752 64.8709L73.3392 61.2229L72.3563 59.4811ZM66.7624 63.0745C65.974 62.7519 65.2135 62.2224 64.4847 61.4553L63.0348 62.8327C63.9273 63.7723 64.9162 64.4801 66.0051 64.9255L66.7624 63.0745ZM64.5013 61.4731C63.7659 60.6603 63.5438 60.0595 63.5438 59.648H61.5438C61.5438 60.7725 62.1323 61.8357 63.0182 62.8149L64.5013 61.4731ZM63.5438 59.648V38.4H61.5438V59.648H63.5438ZM63.5438 38.4C63.5438 36.4312 63.1911 34.7739 62.3285 33.5878L60.711 34.7642C61.2137 35.4554 61.5438 36.6141 61.5438 38.4H63.5438ZM62.346 33.6127C61.6144 32.5396 60.6449 31.768 59.4078 31.768V33.768C59.7066 33.768 60.1451 33.935 60.6935 34.7393L62.346 33.6127ZM60.4078 32.768V31.36H58.4078V32.768H60.4078ZM103.652 57.408L102.871 58.0327L102.881 58.0459L102.892 58.0588L103.652 57.408ZM106.02 58.688H107.02V57.8996L106.253 57.7156L106.02 58.688ZM106.02 60.096L106.508 60.9686L107.02 60.6823V60.096H106.02ZM99.0438 64L98.6651 64.9255L99.1114 65.1081L99.5321 64.8726L99.0438 64ZM96.4198 62.144L95.6782 62.8149L95.6864 62.8239L95.6948 62.8327L96.4198 62.144ZM95.2038 59.712H96.2038V58.0414L94.7313 58.8306L95.2038 59.712ZM87.2038 64L86.649 64.8321L87.1478 65.1646L87.6762 64.8814L87.2038 64ZM86.6278 63.68L86.0731 64.5121L86.1249 64.5466L86.1805 64.5744L86.6278 63.68ZM85.2838 62.72L84.633 63.4793L84.6618 63.504L84.6924 63.5264L85.2838 62.72ZM83.6838 61.12L84.4471 60.4741L84.4357 60.4605L84.4237 60.4473L83.6838 61.12ZM91.7478 40.576L92.0419 41.5318L92.0532 41.5282L91.7478 40.576ZM95.1398 39.488L95.4452 40.4402L96.1398 40.2174V39.488H95.1398ZM93.2198 34.432L92.6113 35.2256L92.6198 35.2321L92.6284 35.2384L93.2198 34.432ZM85.7958 32.96H84.7958V33.96H85.7958V32.96ZM85.7958 31.04L85.4613 30.0976L84.7958 30.3337V31.04H85.7958ZM100.964 30.272L100.144 30.8442L100.144 30.8442L100.964 30.272ZM90.4038 56.768L89.6539 57.4296L89.6746 57.453L89.6966 57.4751L90.4038 56.768ZM95.2038 56.832L95.785 57.6457L96.2038 57.3466V56.832H95.2038ZM95.2038 42.368H96.2038V40.9452L94.865 41.4271L95.2038 42.368ZM92.7718 43.328L92.3527 42.42L92.3385 42.4266L92.3245 42.4336L92.7718 43.328ZM91.1078 44.544L91.786 45.2788L91.7882 45.2768L91.1078 44.544ZM101.884 35.968V54.08H103.884V35.968H101.884ZM101.884 54.08C101.884 55.7052 102.135 57.1128 102.871 58.0327L104.433 56.7833C104.145 56.4232 103.884 55.6121 103.884 54.08H101.884ZM102.892 58.0588C103.586 58.8681 104.594 59.3741 105.786 59.6604L106.253 57.7156C105.313 57.4899 104.741 57.1426 104.411 56.7572L102.892 58.0588ZM105.02 58.688V60.096H107.02V58.688H105.02ZM105.531 59.2234L98.5554 63.1274L99.5321 64.8726L106.508 60.9686L105.531 59.2234ZM99.4224 63.0745C98.634 62.7519 97.8735 62.2224 97.1447 61.4553L95.6948 62.8327C96.5873 63.7723 97.5762 64.4801 98.6651 64.9255L99.4224 63.0745ZM97.1613 61.4731C96.4137 60.6468 96.2038 60.0696 96.2038 59.712H94.2038C94.2038 60.8051 94.8045 61.8492 95.6782 62.8149L97.1613 61.4731ZM94.7313 58.8306L86.7313 63.1186L87.6762 64.8814L95.6762 60.5934L94.7313 58.8306ZM87.7585 63.1679C87.5783 63.0478 87.3423 62.9192 87.075 62.7856L86.1805 64.5744C86.4252 64.6968 86.5732 64.7815 86.649 64.8321L87.7585 63.1679ZM87.1825 62.8479C86.9474 62.6912 86.516 62.3836 85.8751 61.9136L84.6924 63.5264C85.3315 63.9951 85.7961 64.3274 86.0731 64.5121L87.1825 62.8479ZM85.9345 61.9607C85.3744 61.4806 84.8793 60.9848 84.4471 60.4741L82.9204 61.7659C83.4268 62.3645 83.9984 62.9354 84.633 63.4793L85.9345 61.9607ZM84.4237 60.4473C83.2997 59.2109 82.7638 57.8469 82.7638 56.32H80.7638C80.7638 58.3771 81.5078 60.2131 82.9438 61.7927L84.4237 60.4473ZM82.7638 56.32V45.824H80.7638V56.32H82.7638ZM82.7638 45.824C82.7638 45.9297 82.7214 45.9472 82.7862 45.8562C82.8504 45.7661 82.9801 45.6264 83.2149 45.4413C83.6849 45.0707 84.4408 44.6225 85.525 44.1013L84.6585 42.2987C83.524 42.8441 82.6159 43.3666 81.9766 43.8707C81.6567 44.1229 81.3704 44.3965 81.1573 44.6958C80.9448 44.9941 80.7638 45.377 80.7638 45.824H82.7638ZM85.525 44.1013C87.7014 43.0549 89.8736 42.1989 92.0418 41.5318L91.4537 39.6202C89.1845 40.3184 86.9194 41.2117 84.6585 42.2987L85.525 44.1013ZM92.0532 41.5282L95.4452 40.4402L94.8343 38.5358L91.4423 39.6238L92.0532 41.5282ZM96.1398 39.488C96.1398 36.9123 95.4623 34.8364 93.8111 33.6256L92.6284 35.2384C93.5372 35.9049 94.1398 37.1997 94.1398 39.488H96.1398ZM93.8282 33.6384C93.0168 33.0164 91.9097 32.6071 90.5982 32.3471C89.2752 32.0848 87.6691 31.96 85.7958 31.96V33.96C87.5917 33.96 89.0577 34.0806 90.2093 34.3089C91.3725 34.5395 92.1427 34.8663 92.6113 35.2256L93.8282 33.6384ZM86.7958 32.96V31.04H84.7958V32.96H86.7958ZM86.1302 31.9824C89.4331 30.8104 92.0016 29.9349 93.8411 29.3535C94.7619 29.0625 95.4898 28.8483 96.0309 28.708C96.3017 28.6377 96.5163 28.5884 96.6793 28.5572C96.7605 28.5417 96.8232 28.5318 96.8698 28.526C96.9188 28.5199 96.9366 28.52 96.9318 28.52V26.52C96.5815 26.52 96.0762 26.63 95.5286 26.772C94.939 26.925 94.1736 27.1509 93.2384 27.4465C91.3659 28.0384 88.7718 28.9229 85.4613 30.0976L86.1302 31.9824ZM96.9318 28.52C97.8558 28.52 98.9378 29.1158 100.144 30.8442L101.784 29.6998C100.43 27.7589 98.8237 26.52 96.9318 26.52V28.52ZM100.144 30.8442C101.323 32.5353 101.884 34.2377 101.884 35.968H103.884C103.884 33.7729 103.164 31.678 101.784 29.6998L100.144 30.8442ZM88.4438 54.016C88.4438 55.3309 88.8292 56.4949 89.6539 57.4296L91.1536 56.1064C90.6983 55.5904 90.4438 54.9198 90.4438 54.016H88.4438ZM89.6966 57.4751C90.5284 58.3069 91.5181 58.792 92.6438 58.792V56.792C92.1481 56.792 91.6444 56.5944 91.1109 56.0609L89.6966 57.4751ZM92.6438 58.792C93.7258 58.792 94.779 58.3643 95.785 57.6457L94.6225 56.0183C93.8365 56.5797 93.1831 56.792 92.6438 56.792V58.792ZM96.2038 56.832V42.368H94.2038V56.832H96.2038ZM94.865 41.4271C93.7899 41.8142 92.9471 42.1457 92.3527 42.42L93.1908 44.236C93.7058 43.9983 94.4842 43.6898 95.5425 43.3089L94.865 41.4271ZM92.3245 42.4336C91.6999 42.7459 91.0674 43.2168 90.4273 43.8112L91.7882 45.2768C92.3428 44.7618 92.8196 44.4221 93.219 44.2224L92.3245 42.4336ZM90.4295 43.8092C89.0131 45.1166 88.4438 47.2378 88.4438 49.856H90.4438C90.4438 47.4395 90.9837 46.0194 91.786 45.2788L90.4295 43.8092ZM88.4438 49.856V54.016H90.4438V49.856H88.4438ZM109.486 47.552L108.582 47.9801L108.582 47.9801L109.486 47.552ZM115.054 30.528L115.455 31.444L115.462 31.4407L115.054 30.528ZM123.822 28.224L122.978 28.7609L122.99 28.7794L123.003 28.7975L123.822 28.224ZM124.526 29.312L123.658 29.8081L123.675 29.838L123.694 29.8667L124.526 29.312ZM125.294 30.72L124.399 31.1672L124.416 31.2016L124.436 31.2345L125.294 30.72ZM126.254 32.32L127.133 31.8437L127.123 31.8244L127.111 31.8055L126.254 32.32ZM128.366 33.856H129.366V32.856H128.366V33.856ZM128.366 35.136L128.767 36.0522L129.366 35.79V35.136H128.366ZM125.678 36.48L125.204 35.5995L125.198 35.6026L125.678 36.48ZM119.15 35.584L118.205 35.9118L118.208 35.9203L118.211 35.9288L119.15 35.584ZM121.134 43.136L121.543 44.0485L121.543 44.0485L121.134 43.136ZM128.302 43.968L127.394 44.3871L127.4 44.4012L127.407 44.4152L128.302 43.968ZM122.158 61.696L122.532 62.6234L122.536 62.6217L122.158 61.696ZM112.878 63.872L111.97 64.2911L111.99 64.3345L112.014 64.3759L112.878 63.872ZM111.726 61.376L110.805 61.7656L110.811 61.7805L110.818 61.7951L111.726 61.376ZM110.318 58.56L109.438 59.0363L109.451 59.0592L109.464 59.0815L110.318 58.56ZM108.206 57.024H107.206V58.024H108.206V57.024ZM108.206 55.744L107.805 54.8278L107.206 55.09V55.744H108.206ZM110.958 54.4L111.418 55.2878L111.431 55.2811L111.443 55.2742L110.958 54.4ZM117.678 55.936L116.741 56.2854L116.743 56.2923L116.746 56.2992L117.678 55.936ZM121.262 59.2L121.926 59.9474L121.926 59.9474L121.262 59.2ZM116.206 48.448L115.806 47.5315L115.806 47.5315L116.206 48.448ZM112.238 48.984C111.777 48.984 111.113 48.6512 110.389 47.1239L108.582 47.9801C109.395 49.6955 110.566 50.984 112.238 50.984V48.984ZM110.389 47.1239C109.701 45.671 109.334 43.8423 109.334 41.6H107.334C107.334 44.051 107.734 46.1904 108.582 47.9801L110.389 47.1239ZM109.334 41.6V34.688H107.334V41.6H109.334ZM109.334 34.688C109.334 34.9152 109.207 34.9281 109.454 34.6859C109.658 34.4861 110.007 34.2204 110.54 33.8903C111.6 33.2344 113.228 32.4195 115.455 31.444L114.652 29.612C112.399 30.5992 110.668 31.4589 109.487 32.1897C108.901 32.5529 108.41 32.9086 108.053 33.2581C107.74 33.5653 107.334 34.0554 107.334 34.688H109.334ZM115.462 31.4407C117.697 30.4406 119.444 29.6965 120.712 29.2041C121.347 28.9576 121.848 28.7792 122.223 28.6639C122.411 28.6063 122.556 28.5677 122.664 28.5443C122.782 28.5188 122.817 28.52 122.798 28.52V26.52C122.459 26.52 122.039 26.6284 121.636 26.7521C121.195 26.8875 120.644 27.0851 119.988 27.3398C118.674 27.8502 116.891 28.6101 114.645 29.6153L115.462 31.4407ZM122.798 28.52C122.79 28.52 122.779 28.5185 122.77 28.5154C122.761 28.5126 122.763 28.5114 122.775 28.52C122.804 28.54 122.878 28.6029 122.978 28.7609L124.665 27.6871C124.272 27.0695 123.662 26.52 122.798 26.52V28.52ZM123.003 28.7975C123.292 29.2104 123.508 29.5457 123.658 29.8081L125.394 28.8159C125.203 28.4809 124.949 28.0909 124.641 27.6505L123.003 28.7975ZM123.694 29.8667C123.826 30.065 124.057 30.4833 124.399 31.1672L126.188 30.2728C125.847 29.5914 125.567 29.071 125.358 28.7573L123.694 29.8667ZM124.436 31.2345C124.82 31.8745 125.14 32.4078 125.396 32.8345L127.111 31.8055C126.855 31.3788 126.535 30.8455 126.151 30.2055L124.436 31.2345ZM125.374 32.7963C126.031 34.0085 127.014 34.856 128.366 34.856V32.856C128.01 32.856 127.586 32.6795 127.133 31.8437L125.374 32.7963ZM127.366 33.856V35.136H129.366V33.856H127.366ZM127.965 34.2198C127.246 34.5343 126.323 34.9968 125.204 35.5995L126.152 37.3605C127.251 36.7685 128.12 36.335 128.767 36.0522L127.965 34.2198ZM125.198 35.6026C123.835 36.3478 122.795 36.9019 122.073 37.2682C121.711 37.4521 121.44 37.5829 121.253 37.6657C121.158 37.7077 121.099 37.7311 121.067 37.7422C120.989 37.77 121.094 37.72 121.262 37.72V39.72C121.482 39.72 121.681 39.6467 121.734 39.6278C121.835 39.5922 121.947 39.5457 122.063 39.4943C122.297 39.3904 122.605 39.2413 122.978 39.0518C123.728 38.6714 124.79 38.1055 126.158 37.3574L125.198 35.6026ZM121.262 37.72C121.491 37.72 121.417 37.8733 121.083 37.3774C120.798 36.9535 120.462 36.2572 120.088 35.2392L118.211 35.9288C118.605 37.0014 119.006 37.8732 119.424 38.4946C119.794 39.0441 120.392 39.72 121.262 39.72V37.72ZM120.095 35.2562C119.723 34.1856 119.347 33.3167 118.955 32.6974C118.759 32.388 118.533 32.0973 118.265 31.8747C117.994 31.6498 117.622 31.448 117.166 31.448V33.448C117.008 33.448 116.943 33.3768 116.987 33.4133C117.034 33.4521 117.13 33.5533 117.265 33.7666C117.534 34.1926 117.851 34.8917 118.205 35.9118L120.095 35.2562ZM117.166 31.448C116.443 31.448 115.823 31.7817 115.444 32.4135C115.114 32.9639 115.014 33.6606 115.014 34.368H117.014C117.014 33.7954 117.105 33.5321 117.159 33.4425C117.177 33.4126 117.176 33.4261 117.147 33.4422C117.12 33.4574 117.115 33.448 117.166 33.448V31.448ZM115.014 34.368V42.24H117.014V34.368H115.014ZM115.014 42.24C115.014 43.1372 115.11 43.9483 115.39 44.5704C115.535 44.8934 115.749 45.2086 116.067 45.4436C116.395 45.6871 116.776 45.8 117.166 45.8V43.8C117.163 43.8 117.176 43.7998 117.198 43.8069C117.221 43.8141 117.242 43.8252 117.257 43.8364C117.286 43.8581 117.26 43.8533 117.214 43.7496C117.11 43.5184 117.014 43.0495 117.014 42.24H115.014ZM117.166 45.8C117.357 45.8 117.534 45.7431 117.573 45.7312C117.659 45.7053 117.756 45.6713 117.858 45.6334C118.064 45.5569 118.337 45.4467 118.672 45.3062C119.345 45.0241 120.303 44.6041 121.543 44.0485L120.725 42.2235C119.489 42.7772 118.549 43.1892 117.899 43.4618C117.573 43.5986 117.329 43.6964 117.162 43.7586C117.077 43.7901 117.023 43.808 116.994 43.8168C116.919 43.8395 117.017 43.8 117.166 43.8V45.8ZM121.543 44.0485C122.772 43.4975 123.741 43.0917 124.458 42.8254C124.817 42.6921 125.1 42.5986 125.312 42.5398C125.546 42.4751 125.627 42.472 125.614 42.472V40.472C125.344 40.472 125.047 40.5382 124.779 40.6122C124.491 40.692 124.149 40.8066 123.762 40.9506C122.985 41.239 121.97 41.6651 120.725 42.2235L121.543 44.0485ZM125.614 42.472C126.005 42.472 126.654 42.7851 127.394 44.3871L129.21 43.5489C128.413 41.8229 127.27 40.472 125.614 40.472V42.472ZM127.407 44.4152C128.126 45.8525 128.518 47.7753 128.518 50.24H130.518C130.518 47.5847 130.099 45.3262 129.196 43.5208L127.407 44.4152ZM128.518 50.24V57.472H130.518V50.24H128.518ZM128.518 57.472C128.518 57.32 128.574 57.244 128.56 57.2656C128.548 57.285 128.501 57.3471 128.387 57.4503C128.158 57.6577 127.768 57.931 127.18 58.2687C126.012 58.9392 124.221 59.7726 121.779 60.7703L122.536 62.6217C125.002 61.614 126.89 60.7408 128.176 60.0033C128.814 59.637 129.344 59.281 129.728 58.9337C129.921 58.7596 130.105 58.563 130.245 58.3424C130.385 58.124 130.518 57.8267 130.518 57.472H128.518ZM121.784 60.7686C119.357 61.7479 117.458 62.4773 116.082 62.9605C115.393 63.2024 114.847 63.3784 114.437 63.4927C114.232 63.5499 114.071 63.5889 113.949 63.6129C113.818 63.6388 113.769 63.64 113.774 63.64V65.64C114.108 65.64 114.54 65.5404 114.974 65.4193C115.444 65.2882 116.037 65.0963 116.745 64.8475C118.164 64.3494 120.095 63.6068 122.532 62.6234L121.784 60.7686ZM113.774 63.64C113.93 63.64 114.003 63.7114 113.977 63.6887C113.963 63.6772 113.934 63.649 113.891 63.5941C113.849 63.5396 113.798 63.4658 113.742 63.3681L112.014 64.3759C112.194 64.6845 112.409 64.9797 112.675 65.2073C112.947 65.4406 113.319 65.64 113.774 65.64V63.64ZM113.786 63.4529C113.53 62.8983 113.146 62.0663 112.634 60.9569L110.818 61.7951C111.33 62.9044 111.714 63.7364 111.97 64.2911L113.786 63.4529ZM112.647 60.9864C112.164 59.8457 111.673 58.8601 111.171 58.0385L109.464 59.0815C109.901 59.7959 110.349 60.6877 110.805 61.7656L112.647 60.9864ZM111.197 58.0837C110.54 56.8715 109.557 56.024 108.206 56.024V58.024C108.561 58.024 108.986 58.2005 109.438 59.0363L111.197 58.0837ZM109.206 57.024V55.744H107.206V57.024H109.206ZM108.607 56.6602C109.319 56.3486 110.259 55.889 111.418 55.2878L110.497 53.5122C109.353 54.1057 108.458 54.5421 107.805 54.8278L108.607 56.6602ZM111.443 55.2742C112.785 54.529 113.808 53.9751 114.519 53.6091C114.876 53.4254 115.143 53.2948 115.327 53.2124C115.42 53.1706 115.478 53.1475 115.508 53.1367C115.585 53.1092 115.479 53.16 115.31 53.16V51.16C115.088 51.16 114.889 51.2341 114.835 51.2533C114.735 51.2892 114.623 51.3361 114.508 51.3876C114.276 51.4918 113.972 51.6413 113.604 51.8309C112.864 52.2116 111.819 52.7777 110.472 53.5258L111.443 55.2742ZM115.31 53.16C115.132 53.16 115.074 53.0736 115.157 53.1465C115.235 53.2149 115.363 53.362 115.535 53.6353C115.875 54.1787 116.279 55.0481 116.741 56.2854L118.615 55.5866C118.137 54.3066 117.678 53.288 117.229 52.5727C117.006 52.2166 116.758 51.8918 116.479 51.6455C116.204 51.4037 115.808 51.16 115.31 51.16V53.16ZM116.746 56.2992C117.244 57.5772 117.714 58.5901 118.159 59.2993C118.38 59.6517 118.621 59.9727 118.89 60.2165C119.147 60.4501 119.54 60.712 120.046 60.712V58.712C120.253 58.712 120.323 58.8166 120.234 58.7355C120.156 58.6646 120.027 58.5136 119.853 58.2367C119.508 57.6872 119.093 56.8121 118.609 55.5728L116.746 56.2992ZM120.046 60.712C120.765 60.712 121.398 60.4166 121.926 59.9474L120.597 58.4526C120.357 58.6661 120.18 58.712 120.046 58.712V60.712ZM121.926 59.9474C122.559 59.3848 122.838 58.6238 122.838 57.792H120.838C120.838 58.1549 120.732 58.3326 120.597 58.4526L121.926 59.9474ZM122.838 57.792V49.792H120.838V57.792H122.838ZM122.838 49.792C122.838 48.7722 122.702 47.8481 122.312 47.1464C122.109 46.7804 121.827 46.4596 121.452 46.2345C121.076 46.0085 120.659 45.912 120.238 45.912V47.912C120.35 47.912 120.4 47.9355 120.423 47.9495C120.448 47.9644 120.5 48.0036 120.564 48.1176C120.707 48.3759 120.838 48.8918 120.838 49.792H122.838ZM120.238 45.912C119.985 45.912 119.705 45.9898 119.503 46.0512C119.261 46.1247 118.964 46.2297 118.618 46.3615C117.924 46.6259 116.984 47.0172 115.806 47.5315L116.606 49.3645C117.774 48.8548 118.68 48.4781 119.33 48.2305C119.656 48.1063 119.905 48.0193 120.084 47.9648C120.304 47.8982 120.32 47.912 120.238 47.912V45.912ZM115.806 47.5315C114.637 48.0415 113.735 48.419 113.093 48.6674C112.771 48.7921 112.526 48.8796 112.353 48.9344C112.13 49.0048 112.135 48.984 112.238 48.984V50.984C112.49 50.984 112.772 50.8992 112.955 50.8416C113.187 50.7684 113.475 50.6639 113.815 50.5326C114.496 50.269 115.428 49.8785 116.606 49.3645L115.806 47.5315ZM142.527 30.272L142.873 31.2104L142.88 31.2077L142.527 30.272ZM154.175 30.144L153.405 30.7823L153.41 30.7878L153.415 30.7933L154.175 30.144ZM149.375 61.312L149.735 62.2451L149.739 62.2434L149.375 61.312ZM137.215 61.248L136.404 61.8328L136.408 61.8389L136.413 61.845L137.215 61.248ZM148.671 57.088L149.296 57.8689L149.671 57.5686V57.088H148.671ZM142.911 34.432L142.292 33.6471L141.911 33.9474V34.432H142.911ZM136.231 54.656V33.408H134.231V54.656H136.231ZM136.231 33.408C136.231 33.7158 136.085 33.9113 136.05 33.9561C136.023 33.9908 136 34.0138 135.989 34.025C135.982 34.0311 135.977 34.0356 135.974 34.0382C135.971 34.0409 135.969 34.0424 135.969 34.0425C135.969 34.0427 135.973 34.0393 135.983 34.0325C135.992 34.0258 136.006 34.0169 136.024 34.0056C136.059 33.9828 136.108 33.9541 136.171 33.9192C136.431 33.7756 136.851 33.5764 137.45 33.3187C138.641 32.8068 140.445 32.1048 142.873 31.2103L142.182 29.3337C139.745 30.2312 137.901 30.9478 136.66 31.4813C136.044 31.7462 135.552 31.9764 135.204 32.1688C135.034 32.2624 134.863 32.3666 134.721 32.4795C134.652 32.5347 134.556 32.6184 134.47 32.7304C134.397 32.8242 134.231 33.0628 134.231 33.408H136.231ZM142.88 31.2077C145.307 30.2922 147.206 29.6101 148.583 29.1581C149.272 28.9318 149.82 28.7669 150.231 28.6597C150.437 28.606 150.6 28.5692 150.724 28.5464C150.785 28.535 150.832 28.528 150.867 28.524C150.903 28.5198 150.916 28.52 150.911 28.52V26.52C150.587 26.52 150.163 26.6108 149.727 26.7243C149.259 26.8464 148.667 27.0255 147.959 27.2579C146.542 27.7232 144.611 28.4171 142.174 29.3363L142.88 31.2077ZM150.911 28.52C150.896 28.52 150.948 28.5169 151.089 28.5847C151.226 28.6511 151.411 28.7675 151.645 28.9554C152.114 29.3328 152.7 29.9315 153.405 30.7823L154.945 29.5057C154.2 28.6072 153.516 27.8939 152.898 27.3966C152.317 26.9299 151.634 26.52 150.911 26.52V28.52ZM153.415 30.7933C154.845 32.4685 155.415 33.8205 155.415 34.88H157.415C157.415 33.1235 156.492 31.3181 154.936 29.4947L153.415 30.7933ZM155.415 34.88V58.048H157.415V34.88H155.415ZM155.415 58.048C155.415 57.7895 155.521 57.617 155.559 57.5614C155.583 57.526 155.604 57.5018 155.615 57.489C155.627 57.4757 155.635 57.4686 155.636 57.4677C155.637 57.4669 155.625 57.4782 155.591 57.5019C155.559 57.5247 155.514 57.554 155.455 57.59C155.211 57.7388 154.811 57.9454 154.235 58.2128C153.09 58.7435 151.353 59.4652 149.011 60.3806L149.739 62.2434C152.091 61.3241 153.874 60.5845 155.076 60.0272C155.673 59.7506 156.153 59.5065 156.495 59.298C156.662 59.1964 156.833 59.0812 156.974 58.9543C157.044 58.8912 157.136 58.7997 157.217 58.6801C157.291 58.5702 157.415 58.3492 157.415 58.048H155.415ZM149.016 60.3789C146.699 61.2715 144.844 61.9349 143.444 62.3738C141.996 62.8276 141.157 63 140.799 63V65C141.509 65 142.632 64.7244 144.042 64.2822C145.501 63.8251 147.401 63.1445 149.735 62.2451L149.016 60.3789ZM140.799 63C140.59 63 140.246 62.904 139.744 62.5188C139.247 62.1374 138.67 61.5284 138.017 60.651L136.413 61.845C137.125 62.8023 137.828 63.5693 138.526 64.1052C139.219 64.6373 139.985 65 140.799 65V63ZM138.026 60.6632C136.842 59.0208 136.231 57.0349 136.231 54.656H134.231C134.231 57.3971 134.943 59.8059 136.404 61.8328L138.026 60.6632ZM146.175 59.112C147.281 59.112 148.327 58.6442 149.296 57.8689L148.047 56.3071C147.309 56.8972 146.691 57.112 146.175 57.112V59.112ZM149.671 57.088V38.208H147.671V57.088H149.671ZM149.671 38.208C149.671 36.5455 149.39 35.1213 148.679 34.0885C147.921 32.9885 146.773 32.472 145.407 32.472V34.472C146.218 34.472 146.702 34.7448 147.032 35.2235C147.408 35.7694 147.671 36.7132 147.671 38.208H149.671ZM145.407 32.472C144.285 32.472 143.24 32.898 142.292 33.6471L143.531 35.2169C144.203 34.686 144.823 34.472 145.407 34.472V32.472ZM141.911 34.432V53.376H143.911V34.432H141.911ZM141.911 53.376C141.911 55.0385 142.192 56.4627 142.904 57.4955C143.662 58.5955 144.81 59.112 146.175 59.112V57.112C145.365 57.112 144.881 56.8392 144.551 56.3605C144.174 55.8146 143.911 54.8708 143.911 53.376H141.911ZM173.098 58.944H174.098V58.1203L173.289 57.9625L173.098 58.944ZM173.098 60.352L173.589 61.2229L174.098 60.9359V60.352H173.098ZM166.634 64L166.255 64.9255L166.703 65.1089L167.125 64.8709L166.634 64ZM164.01 62.144L163.268 62.8149L163.276 62.8239L163.285 62.8327L164.01 62.144ZM160.17 19.84H159.17V20.6637L159.978 20.8215L160.17 19.84ZM160.17 18.432L159.678 17.5611L159.17 17.8481V18.432H160.17ZM166.634 14.784L167.012 13.8584L166.564 13.6751L166.142 13.9131L166.634 14.784ZM169.258 16.704L168.516 17.3749L168.524 17.3839L168.533 17.3927L169.258 16.704ZM169.474 19.136V54.528H171.474V19.136H169.474ZM169.474 54.528C169.474 55.9228 169.705 57.1439 170.27 58.0948C170.86 59.0869 171.765 59.7028 172.906 59.9255L173.289 57.9625C172.681 57.8439 172.275 57.5531 171.989 57.0732C171.68 56.5521 171.474 55.7359 171.474 54.528H169.474ZM172.098 58.944V60.352H174.098V58.944H172.098ZM172.606 59.4811L166.142 63.1291L167.125 64.8709L173.589 61.2229L172.606 59.4811ZM167.012 63.0745C166.224 62.7519 165.464 62.2224 164.735 61.4553L163.285 62.8327C164.177 63.7723 165.166 64.4801 166.255 64.9255L167.012 63.0745ZM164.751 61.4731C164.016 60.6603 163.794 60.0595 163.794 59.648H161.794C161.794 60.7725 162.382 61.8357 163.268 62.8149L164.751 61.4731ZM163.794 59.648V24.256H161.794V59.648H163.794ZM163.794 24.256C163.794 22.8612 163.562 21.6401 162.997 20.6892C162.408 19.6971 161.503 19.0812 160.361 18.8585L159.978 20.8215C160.586 20.9401 160.993 21.2309 161.278 21.7108C161.588 22.2319 161.794 23.0481 161.794 24.256H163.794ZM161.17 19.84V18.432H159.17V19.84H161.17ZM160.661 19.3029L167.125 15.6549L166.142 13.9131L159.678 17.5611L160.661 19.3029ZM166.255 15.7095C167.031 16.0271 167.787 16.5689 168.516 17.3749L169.999 16.0331C169.107 15.0471 168.114 14.3089 167.012 13.8584L166.255 15.7095ZM168.533 17.3927C169.258 18.1565 169.474 18.7319 169.474 19.136H171.474C171.474 18.0041 170.879 16.9582 169.983 16.0152L168.533 17.3927Z" fill="#1E1E1E" mask="url(#path-1-inside-1_5_2)"/>
</g>
<a href="https://mirasol">
<rect fill="black" fill-opacity="0" x="0.34375" y="-0.119999" width="169.33" height="82.24"/>
</a>
<defs>
<filter id="filter0_d_5_2" x="0.407745" y="13.44" width="176.69" height="59.2" filterUnits="userSpaceOnUse" color-interpolation-filters="sRGB">
<feFlood flood-opacity="0" result="BackgroundImageFix"/>
<feColorMatrix in="SourceAlpha" type="matrix" values="0 0 0 0 0 0 0 0 0 0 0 0 0 0 0 0 0 0 127 0" result="hardAlpha"/>
<feOffset dy="4"/>
<feGaussianBlur stdDeviation="2"/>
<feComposite in2="hardAlpha" operator="out"/>
<feColorMatrix type="matrix" values="0 0 0 0 0 0 0 0 0 0 0 0 0 0 0 0 0 0 0.25 0"/>
<feBlend mode="normal" in2="BackgroundImageFix" result="effect1_dropShadow_5_2"/>
<feBlend mode="normal" in="SourceGraphic" in2="effect1_dropShadow_5_2" result="shape"/>
</filter>
<linearGradient id="paint0_linear_5_2" x1="89" y1="0" x2="89" y2="82" gradientUnits="userSpaceOnUse">
<stop stop-color="#0575E6"/>
<stop offset="0.328125" stop-color="#00F260" stop-opacity="0.483334"/>
<stop offset="0.692708" stop-color="#0575E6" stop-opacity="0.252024"/>
<stop offset="1" stop-color="#00F260" stop-opacity="0"/>
</linearGradient>
</defs>
</svg>
